# Blender v2.69 (sub 4) OBJ File: 'SizeTest.blend'
# www.blender.org
g Icosphere.003_Icosphere.004
v -0.186463 -0.023251 0.186463
v -0.186463 -0.023251 -0.186463
v 0.186463 -0.023251 -0.186463
v 0.186463 -0.023251 0.186463
v -0.186463 0.349675 0.186463
v -0.186463 0.349675 -0.186463
v 0.186463 0.349675 -0.186463
v 0.186463 0.349675 0.186463
v -0.139007 0.353700 0.139007
v -0.139007 0.353700 -0.139007
v 0.139007 0.353700 -0.139007
v 0.139007 0.353700 0.139007
v -0.139007 0.631714 0.139007
v -0.139007 0.631714 -0.139007
v 0.139007 0.631714 -0.139007
v 0.139007 0.631714 0.139007
v -0.128697 0.635269 0.128697
v -0.128697 0.635269 -0.128697
v 0.128697 0.635269 -0.128697
v 0.128697 0.635269 0.128697
v -0.128697 0.892664 0.128697
v -0.128697 0.892664 -0.128697
v 0.128697 0.892664 -0.128697
v 0.128697 0.892664 0.128697
v -0.016780 0.555614 0.154633
v -0.016780 0.555614 0.121073
v 0.016780 0.555614 0.121073
v 0.016780 0.555614 0.154633
v -0.016780 0.589173 0.154633
v -0.016780 0.589173 0.121073
v 0.016780 0.589173 0.121073
v 0.016780 0.589173 0.154633
v -0.016780 0.411619 0.154633
v -0.016780 0.411619 0.121073
v 0.016780 0.411619 0.121073
v 0.016780 0.411619 0.154633
v -0.016780 0.445179 0.154633
v -0.016780 0.445179 0.121073
v 0.016780 0.445179 0.121073
v 0.016780 0.445179 0.154633
v -0.016780 0.687026 0.255026
v -0.016780 0.687026 0.120789
v 0.016780 0.687026 0.120789
v 0.016780 0.687026 0.255026
v -0.016780 0.720585 0.255026
v -0.016780 0.720585 0.120789
v 0.016780 0.720585 0.120789
v 0.016780 0.720585 0.255026
v -0.016780 0.276798 0.204143
v -0.016780 0.276798 0.170584
v 0.016780 0.276798 0.170584
v 0.016780 0.276798 0.204143
v -0.016780 0.310357 0.204143
v -0.016780 0.310357 0.170584
v 0.016780 0.310357 0.170584
v 0.016780 0.310357 0.204143
v -0.070705 0.774056 0.154633
v -0.070705 0.774056 0.121073
v -0.037146 0.774056 0.121073
v -0.037146 0.774056 0.154633
v -0.070705 0.807615 0.154633
v -0.070705 0.807615 0.121073
v -0.037146 0.807615 0.121073
v -0.037146 0.807615 0.154633
v 0.070705 0.774056 0.154633
v 0.070705 0.774056 0.121073
v 0.037146 0.774056 0.121073
v 0.037146 0.774056 0.154633
v 0.070705 0.807615 0.154633
v 0.070705 0.807615 0.121073
v 0.037146 0.807615 0.121073
v 0.037146 0.807615 0.154633
v -0.181695 0.306630 0.114950
v -0.181695 0.306630 0.081390
v -0.148136 0.306630 0.081390
v -0.148136 0.306630 0.114950
v -0.181695 0.742697 0.114950
v -0.181695 0.742697 0.081390
v -0.148136 0.742697 0.081390
v -0.148136 0.742697 0.114950
v -0.256196 0.742697 0.122396
v -0.256196 0.742697 0.073944
v -0.073636 0.742697 0.073944
v -0.073636 0.742697 0.122396
v -0.256196 0.928515 0.122396
v -0.256196 0.928515 0.073944
v -0.073636 0.928515 0.073944
v -0.073636 0.928515 0.122396
v 0.004266 0.888220 0.021870
v 0.004266 0.888220 -0.096205
v 0.122341 0.888220 -0.096205
v 0.122341 0.888220 0.021870
v 0.004266 0.917785 0.021870
v 0.004266 0.917785 -0.096205
v 0.122341 0.917785 -0.096205
v 0.122341 0.917785 0.021870
v 0.025265 0.917785 0.000871
v 0.025265 0.917785 -0.075205
v 0.101341 0.917785 -0.075205
v 0.101341 0.917785 0.000871
v 0.025265 0.961774 0.000871
v 0.025265 0.961774 -0.075205
v 0.101341 0.961774 -0.075205
v 0.101341 0.961774 0.000871
v -0.111578 0.054574 -0.249203
v 0.111578 0.054574 -0.249203
v -0.111578 0.617370 -0.111022
v 0.111578 0.617370 -0.111022
v -0.111578 0.059454 -0.278538
v 0.111578 0.059454 -0.278538
v -0.111578 0.630035 -0.137928
v 0.111578 0.630035 -0.137928
v -0.111578 0.437718 -0.195582
v -0.111578 0.250440 -0.216617
v 0.111578 0.437718 -0.195582
v 0.111578 0.250440 -0.216617
v -0.111578 0.450382 -0.222488
v -0.111578 0.255320 -0.245951
v 0.111578 0.450382 -0.222488
v 0.111578 0.255320 -0.245951
v 0.157887 0.022862 0.222442
v -0.074417 0.023932 0.155218
v -0.101159 0.029550 -0.154590
v 0.149397 0.024621 -0.258503
v 0.332906 0.022861 -0.020956
v 0.103700 0.087050 -0.005988
v 0.350871 -0.023251 0.067134
v 0.343364 -0.023251 -0.108041
v 0.083345 -0.023251 0.267410
v 0.246800 -0.023251 0.210376
v -0.152117 -0.022237 0.087520
v -0.052156 -0.023251 0.228174
v -0.076083 -0.020538 -0.244411
v -0.174631 -0.020428 -0.098477
v 0.228388 -0.023209 -0.248556
v 0.074902 -0.022352 -0.303479
v 0.275564 0.030957 0.121848
v 0.029747 0.030969 0.222912
v -0.115887 0.036817 0.005472
v 0.022173 0.036195 -0.239561
v 0.262956 0.031432 -0.161450
v 0.130170 0.065971 0.124456
v 0.228910 0.066279 -0.020140
v 0.005620 0.069206 0.092383
v 0.002246 0.075736 -0.081831
v 0.137397 0.070402 -0.151172
v 0.148514 0.619928 -0.157370
v 0.148514 0.605919 0.145217
v -0.148514 0.605919 0.145217
v -0.148514 0.619928 -0.157370
v 0.148514 0.685317 -0.154343
v 0.148514 0.671307 0.148244
v -0.148514 0.671307 0.148244
v -0.148514 0.685317 -0.154343
vt 0.750000 0.531250
vt 0.750000 1.000000
vt 0.281250 1.000000
vt 0.281250 0.531250
vt 0.968750 0.984375
vt 0.968750 0.968750
vt 0.984375 0.968750
vt 0.953125 1.000000
vt 0.953125 0.953125
vt 1.000000 0.953125
vt 0.062500 0.046875
vt 0.109375 0.046875
vt 0.109375 0.203125
vt 0.062500 0.203125
vt 0.078125 0.093750
vt 1.000000 1.000000
vt 0.906250 0.531250
vt 0.906250 0.500000
vt 0.937500 0.500000
vt 0.875000 0.562500
vt 0.875000 0.453125
vt 0.890625 0.453125
vt 0.781250 0.328125
vt 0.781250 0.296875
vt 0.984375 0.296875
vt 0.796875 0.312500
vt 0.796875 0.281250
vt 0.812500 0.281250
vt 0.156250 0.828125
vt 0.156250 0.953125
vt 0.031250 0.953125
vt 1.000000 0.000000
vt 1.000000 0.250000
vt 0.750000 0.250000
vt 0.859375 0.187500
vt 0.390625 0.156250
vt 0.437500 0.093750
vt 0.437500 0.171875
vt 0.406250 0.281250
vt 0.390625 0.218750
vt 0.453125 0.218750
vt 0.562500 0.281250
vt 0.484375 0.296875
vt 0.531250 0.218750
vt 0.609375 0.156250
vt 0.609375 0.218750
vt 0.562500 0.171875
vt 0.500000 0.078125
vt 0.562500 0.093750
vt 0.500000 0.125000
vt 0.453125 0.031250
vt 0.546875 0.031250
vt 0.328125 0.203125
vt 0.359375 0.093750
vt 0.437500 0.343750
vt 0.343750 0.281250
vt 0.656250 0.281250
vt 0.546875 0.343750
vt 0.640625 0.093750
vt 0.671875 0.187500
vt 0.484375 0.187500
vt 0.843750 0.093750
vt 0.875000 0.093750
vt 0.875000 0.062500
vt 0.812500 0.093750
vt 0.812500 0.109375
vt 0.796875 0.109375
vt 1.000000 0.093750
vt 1.000000 0.156250
vt 0.750000 0.156250
vt 0.750000 0.093750
vt 0.984375 0.984375
vt 0.937500 0.531250
vt 0.890625 0.562500
vt 0.984375 0.328125
vt 0.812500 0.312500
vt 0.031250 0.828125
vt 0.750000 0.000000
vt 0.843750 0.062500
vt 0.796875 0.093750
vn -1.000000 0.000000 0.000000
vn 0.000000 0.000000 -1.000000
vn 1.000000 0.000000 0.000000
vn 0.000000 0.000000 1.000000
vn 0.000000 1.000000 0.000000
vn 0.000000 -1.000000 0.000000
vn 0.000000 1.000000 0.000009
vn 0.000000 1.000000 -0.000009
vn 0.000000 -0.164116 0.986441
vn 0.000000 0.164116 -0.986441
vn 0.000000 -0.986441 -0.164117
vn 0.000000 0.904783 0.425873
vn 0.000000 -0.425873 0.904783
vn 0.000000 -0.111614 0.993752
vn 0.000000 0.425873 -0.904783
vn 0.000000 0.119422 -0.992844
vn 0.226077 0.913591 0.337994
vn -0.266894 0.910435 0.316030
vn -0.361895 0.929158 -0.075484
vn 0.025713 0.920550 -0.389778
vn 0.380909 0.914874 -0.133840
vn 0.954967 0.293876 -0.040922
vn 0.307122 0.361876 0.880183
vn -0.722862 0.458419 0.517032
vn -0.713799 0.507717 -0.482405
vn 0.318314 0.341799 -0.884223
vn 0.438203 0.696147 0.568645
vn 0.714638 0.468735 0.519212
vn 0.673216 0.702605 0.230490
vn -0.423650 0.696195 0.579511
vn -0.247437 0.456703 0.854516
vn 0.044492 0.659688 0.750221
vn -0.607001 0.789394 -0.091691
vn -0.779809 0.617913 0.100402
vn -0.642053 0.727978 0.240450
vn -0.037338 0.721359 -0.691554
vn -0.292745 0.572476 -0.765880
vn -0.404620 0.745981 -0.528957
vn 0.661743 0.692530 -0.287226
vn 0.686793 0.461151 -0.561832
vn 0.469699 0.651893 -0.595330
vn 0.175845 0.976809 0.122158
vn 0.233788 0.958749 0.161687
vn 0.383937 0.917693 0.102139
vn -0.016283 0.986538 0.162717
vn -0.049652 0.955976 0.289215
vn 0.059622 0.919808 0.387813
vn -0.140075 0.989341 0.039800
vn -0.284895 0.957664 0.041416
vn -0.372396 0.910163 0.181449
vn -0.021815 0.992668 -0.118890
vn -0.091810 0.963090 -0.253039
vn -0.232338 0.936113 -0.264029
vn 0.154681 0.984956 -0.077042
vn 0.279922 0.945606 -0.165749
vn 0.250292 0.900326 -0.356043
vn 0.000000 -0.998930 -0.046249
vn 0.000000 0.998930 0.046249
vn -0.000000 0.046248 -0.998930
vn 0.000000 -0.046248 0.998930
vn 0.000000 -0.425872 0.904783
vn -0.000000 0.046247 -0.998930
s off
f 6/1/1 2/2/1 1/3/1
f 7/1/2 3/2/2 2/3/2
f 8/1/3 4/2/3 3/3/3
f 5/1/4 1/2/4 4/3/4
f 7/1/5 6/2/5 5/3/5
f 14/1/1 10/2/1 9/3/1
f 14/4/2 15/1/2 11/2/2
f 16/1/3 12/2/3 11/3/3
f 16/4/4 13/1/4 9/2/4
f 16/4/5 15/1/5 14/2/5
f 22/1/1 18/2/1 17/3/1
f 23/1/2 19/2/2 18/3/2
f 24/1/3 20/2/3 19/3/3
f 21/1/4 17/2/4 20/3/4
f 24/4/5 23/1/5 22/2/5
f 30/5/1 26/6/1 25/7/1
f 32/5/3 28/6/3 27/7/3
f 29/8/4 25/9/4 28/10/4
f 26/5/6 27/6/6 28/7/6
f 31/5/5 30/6/5 29/7/5
f 38/5/1 34/6/1 33/7/1
f 40/5/3 36/6/3 35/7/3
f 37/8/4 33/9/4 36/10/4
f 34/5/6 35/6/6 36/7/6
f 39/5/5 38/6/5 37/7/5
f 46/11/1 42/12/1 41/13/1
f 48/14/3 44/13/3 43/12/3
f 45/15/4 41/15/4 44/15/4
f 42/11/6 43/12/6 44/13/6
f 47/11/5 46/12/5 45/13/5
f 54/8/1 50/9/1 49/10/1
f 56/8/3 52/9/3 51/10/3
f 53/8/4 49/9/4 52/10/4
f 50/8/6 51/9/6 52/10/6
f 55/8/5 54/9/5 53/10/5
f 62/5/1 58/6/1 57/7/1
f 64/5/3 60/6/3 59/7/3
f 61/8/4 57/9/4 60/10/4
f 58/5/6 59/6/6 60/7/6
f 63/5/5 62/6/5 61/7/5
f 65/5/3 66/6/3 70/7/3
f 67/5/1 68/6/1 72/7/1
f 68/9/4 65/10/4 69/16/4
f 68/5/6 67/6/6 66/7/6
f 69/5/5 70/6/5 71/7/5
f 78/17/1 74/18/1 73/19/1
f 79/17/2 75/18/2 74/19/2
f 80/17/3 76/18/3 75/19/3
f 77/17/4 73/18/4 76/19/4
f 74/17/6 75/18/6 76/19/6
f 79/17/5 78/18/5 77/19/5
f 81/17/6 82/18/6 83/19/6
f 87/20/5 86/21/5 85/22/5
f 84/23/4 88/24/4 85/25/4
f 83/26/3 87/27/3 88/28/3
f 82/23/2 86/24/2 87/25/2
f 81/26/1 85/27/1 86/28/1
f 94/29/1 90/30/1 89/31/1
f 95/29/2 91/30/2 90/31/2
f 96/29/3 92/30/3 91/31/3
f 93/29/4 89/30/4 92/31/4
f 96/29/7 100/30/7 97/31/7
f 100/29/4 104/30/4 101/31/4
f 95/29/5 99/30/5 100/31/5
f 94/29/8 98/30/8 99/31/8
f 93/29/5 97/30/5 98/31/5
f 103/29/5 102/30/5 101/31/5
f 99/29/3 103/30/3 104/31/3
f 98/29/2 102/30/2 103/31/2
f 97/29/1 101/30/1 102/31/1
f 105/32/9 106/33/9 116/34/9
f 120/32/10 110/33/10 109/34/10
f 105/35/11 109/35/11 110/35/11
f 106/35/3 110/35/3 120/35/3
f 108/35/12 112/35/12 111/35/12
f 113/35/1 107/35/1 111/35/1
f 113/32/13 115/33/13 108/34/13
f 114/32/14 116/33/14 115/34/14
f 112/32/15 119/33/15 117/34/15
f 119/32/16 120/33/16 118/34/16
f 115/35/3 119/35/3 112/35/3
f 116/35/3 120/35/3 119/35/3
f 105/35/1 114/35/1 118/35/1
f 114/35/1 113/35/1 117/35/1
f 121/36/17 137/37/17 142/38/17
f 122/39/18 138/40/18 144/41/18
f 123/42/19 139/43/19 145/44/19
f 124/45/20 140/46/20 146/47/20
f 125/48/21 141/49/21 143/50/21
f 127/51/22 128/52/22 125/48/22
f 129/53/23 130/54/23 121/36/23
f 131/55/24 132/56/24 122/39/24
f 133/57/25 134/58/25 123/42/25
f 135/59/26 136/60/26 124/45/26
f 130/54/27 137/37/27 121/36/27
f 130/54/28 127/51/28 137/37/28
f 127/51/29 125/48/29 137/37/29
f 132/56/30 138/40/30 122/39/30
f 132/56/31 129/53/31 138/40/31
f 129/53/32 121/36/32 138/40/32
f 134/58/33 139/43/33 123/42/33
f 134/58/34 131/55/34 139/43/34
f 131/55/35 122/39/35 139/43/35
f 136/60/36 140/46/36 124/45/36
f 136/60/37 133/57/37 140/46/37
f 133/57/38 123/42/38 140/46/38
f 128/52/39 141/49/39 125/48/39
f 128/52/40 135/59/40 141/49/40
f 135/59/41 124/45/41 141/49/41
f 142/38/42 143/50/42 126/61/42
f 142/38/43 137/37/43 143/50/43
f 137/37/44 125/48/44 143/50/44
f 144/41/45 142/38/45 126/61/45
f 144/41/46 138/40/46 142/38/46
f 138/40/47 121/36/47 142/38/47
f 145/44/48 144/41/48 126/61/48
f 145/44/49 139/43/49 144/41/49
f 139/43/50 122/39/50 144/41/50
f 146/47/51 145/44/51 126/61/51
f 146/47/52 140/46/52 145/44/52
f 140/46/53 123/42/53 145/44/53
f 143/50/54 146/47/54 126/61/54
f 143/50/55 141/49/55 146/47/55
f 141/49/56 124/45/56 146/47/56
f 147/62/57 148/63/57 149/64/57
f 153/65/58 152/66/58 151/67/58
f 150/68/59 154/69/59 151/70/59
f 149/68/1 153/69/1 154/70/1
f 149/71/60 148/68/60 152/69/60
f 148/71/3 147/68/3 151/69/3
f 5/4/1 6/1/1 1/3/1
f 6/4/2 7/1/2 2/3/2
f 7/4/3 8/1/3 3/3/3
f 8/4/4 5/1/4 4/3/4
f 8/4/5 7/1/5 5/3/5
f 13/4/1 14/1/1 9/3/1
f 10/3/2 14/4/2 11/2/2
f 15/4/3 16/1/3 11/3/3
f 12/3/4 16/4/4 9/2/4
f 13/3/5 16/4/5 14/2/5
f 21/4/1 22/1/1 17/3/1
f 22/4/2 23/1/2 18/3/2
f 23/4/3 24/1/3 19/3/3
f 24/4/4 21/1/4 20/3/4
f 21/3/5 24/4/5 22/2/5
f 29/72/1 30/5/1 25/7/1
f 31/72/3 32/5/3 27/7/3
f 32/16/4 29/8/4 28/10/4
f 25/72/6 26/5/6 28/7/6
f 32/72/5 31/5/5 29/7/5
f 37/72/1 38/5/1 33/7/1
f 39/72/3 40/5/3 35/7/3
f 40/16/4 37/8/4 36/10/4
f 33/72/6 34/5/6 36/7/6
f 40/72/5 39/5/5 37/7/5
f 45/14/1 46/11/1 41/13/1
f 47/11/3 48/14/3 43/12/3
f 48/15/4 45/15/4 44/15/4
f 41/14/6 42/11/6 44/13/6
f 48/14/5 47/11/5 45/13/5
f 53/16/1 54/8/1 49/10/1
f 55/16/3 56/8/3 51/10/3
f 56/16/4 53/8/4 52/10/4
f 49/16/6 50/8/6 52/10/6
f 56/16/5 55/8/5 53/10/5
f 61/72/1 62/5/1 57/7/1
f 63/72/3 64/5/3 59/7/3
f 64/16/4 61/8/4 60/10/4
f 57/72/6 58/5/6 60/7/6
f 64/72/5 63/5/5 61/7/5
f 69/72/3 65/5/3 70/7/3
f 71/72/1 67/5/1 72/7/1
f 72/8/4 68/9/4 69/16/4
f 65/72/6 68/5/6 66/7/6
f 72/72/5 69/5/5 71/7/5
f 77/73/1 78/17/1 73/19/1
f 78/73/2 79/17/2 74/19/2
f 79/73/3 80/17/3 75/19/3
f 80/73/4 77/17/4 76/19/4
f 73/73/6 74/17/6 76/19/6
f 80/73/5 79/17/5 77/19/5
f 84/73/6 81/17/6 83/19/6
f 88/74/5 87/20/5 85/22/5
f 81/75/4 84/23/4 85/25/4
f 84/76/3 83/26/3 88/28/3
f 83/75/2 82/23/2 87/25/2
f 82/76/1 81/26/1 86/28/1
f 93/77/1 94/29/1 89/31/1
f 94/77/2 95/29/2 90/31/2
f 95/77/3 96/29/3 91/31/3
f 96/77/4 93/29/4 92/31/4
f 93/77/5 96/29/5 97/31/5
f 97/77/4 100/29/4 101/31/4
f 96/77/5 95/29/5 100/31/5
f 95/77/5 94/29/5 99/31/5
f 94/77/5 93/29/5 98/31/5
f 104/77/5 103/29/5 101/31/5
f 100/77/3 99/29/3 104/31/3
f 99/77/2 98/29/2 103/31/2
f 98/77/1 97/29/1 102/31/1
f 114/78/9 105/32/9 116/34/9
f 118/78/10 120/32/10 109/34/10
f 106/35/11 105/35/11 110/35/11
f 116/35/3 106/35/3 120/35/3
f 107/35/12 108/35/12 111/35/12
f 117/35/1 113/35/1 111/35/1
f 107/78/61 113/32/61 108/34/61
f 113/78/14 114/32/14 115/34/14
f 111/78/15 112/32/15 117/34/15
f 117/78/16 119/32/16 118/34/16
f 108/35/3 115/35/3 112/35/3
f 115/35/3 116/35/3 119/35/3
f 109/35/1 105/35/1 118/35/1
f 118/35/1 114/35/1 117/35/1
f 150/79/57 147/62/57 149/64/57
f 154/80/58 153/65/58 151/67/58
f 147/71/62 150/68/62 151/70/62
f 150/71/1 149/68/1 154/70/1
f 153/70/60 149/71/60 152/69/60
f 152/70/3 148/71/3 151/69/3
