# Blender v2.69 (sub 4) OBJ File: 'SizeTest.blend'
# www.blender.org
g cave_wall_straight_Cave_Wall_Straight
v 0.500000 0.000000 -0.500000
v 0.500000 0.000000 0.500000
v -0.500000 1.500000 0.500000
v -0.500000 1.500000 -0.500000
v -0.166660 1.500000 -0.500000
v -0.166660 1.500000 0.500000
v 0.166670 0.243722 -0.500000
v 0.166670 0.243722 0.500000
v -0.059207 1.379974 -0.500000
v -0.059207 1.379974 0.500000
v 0.317578 0.042655 -0.500000
v 0.317578 0.042655 0.500000
vt 0.859375 1.000000
vt 0.859375 0.296875
vt 1.000000 0.296875
vt 0.843750 0.296875
vt 0.843750 1.000000
vt 0.718750 1.000000
vt 0.703125 1.000000
vt 0.000000 1.000000
vt 0.000000 0.171875
vt 0.703125 0.171875
vt 0.000000 0.000000
vt 1.000000 1.000000
vt 0.718750 0.296875
vt 0.703125 0.000000
vn 0.546623 0.837379 0.000000
vn 0.227684 0.973735 0.000000
vn 0.408040 0.912964 0.000000
vn 0.000000 1.000000 0.000000
vn 0.894623 0.446821 0.000000
vn 0.913074 0.407795 0.000000
s 1
f 11/1/1 12/2/1 2/3/2
f 6/4/3 5/5/3 4/6/4
f 9/7/5 10/8/5 8/9/6
f 5/4/3 6/5/3 10/6/5
f 7/10/6 8/9/6 12/11/1
f 1/12/2 11/1/1 2/3/2
f 3/13/4 6/4/3 4/6/4
f 7/10/6 9/7/5 8/9/6
f 9/13/5 5/4/3 10/6/5
f 11/14/1 7/10/6 12/11/1
