# Blender v2.69 (sub 4) OBJ File: 'SizeTest.blend'
# www.blender.org
g cave_water_straight_Cave_Water_Straight
v -0.450000 0.000000 -0.500000
v -0.200000 -0.200000 0.500000
v -0.450000 0.000000 0.500000
v -0.200000 -0.200000 -0.500000
v -0.350000 -0.050000 -0.500000
v -0.350000 -0.050000 0.500000
v -0.500000 0.000000 -0.500000
v -0.500000 0.000000 0.500000
vt 0.156250 0.000000
vt 0.375000 0.000000
vt 0.375000 1.000000
vt 0.953125 1.000000
vt 0.843750 1.000000
vt 0.843750 0.000000
vt 0.953125 0.000000
vt 1.000000 0.000000
vt 1.000000 1.000000
vt 0.156250 1.000000
vn 0.584710 0.811242 0.000000
vn 0.707107 0.707107 0.000000
vn 0.229753 0.973249 0.000000
vn 0.000000 1.000000 0.000000
s 1
f 6/1/1 2/2/2 4/3/2
f 3/4/3 6/5/1 5/6/1
f 1/7/3 7/8/4 8/9/4
f 5/10/1 6/1/1 4/3/2
f 1/7/3 3/4/3 5/6/1
f 3/4/3 1/7/3 8/9/4
