# Blender v2.69 (sub 4) OBJ File: 'SizeTest.blend'
# www.blender.org
g cave_wall_outer_Cave_Wall_Outer
v 0.500000 0.000000 -0.400000
v -0.166660 1.500000 -0.400000
v 0.166670 0.243722 -0.400000
v -0.059207 1.379974 -0.400000
v 0.317578 0.042655 -0.400000
v -0.400000 0.000000 0.500000
v -0.400000 1.379974 -0.059207
v -0.400000 0.042655 0.317578
v 0.207107 0.000000 0.207107
v -0.264293 1.500000 -0.264293
v -0.028593 0.243722 -0.028593
v -0.188312 1.379974 -0.188312
v 0.078115 0.042655 0.078115
v -0.400000 1.500000 -0.400000
v -0.400000 1.500000 -0.166660
v -0.400000 0.243722 0.166670
v 0.500000 0.000000 0.500000
v 0.500000 0.000000 -0.500000
v -0.166660 1.500000 -0.500000
v 0.166670 0.243722 -0.500000
v -0.059207 1.379974 -0.500000
v 0.317578 0.042655 -0.500000
v -0.400000 1.500000 -0.500000
v -0.500000 0.000000 0.500000
v -0.500000 1.379974 -0.059207
v -0.500000 0.042655 0.317578
v -0.500000 1.500000 -0.400000
v -0.500000 1.500000 -0.166660
v -0.500000 0.243722 0.166670
v -0.500000 1.500000 -0.500000
vt 0.609375 0.171875
vt 0.609375 1.000000
vt 0.343750 1.000000
vt 0.609375 0.000000
vt 0.343750 0.171875
vt 0.093750 1.000000
vt 0.093750 0.171875
vt 0.984375 0.484375
vt 0.734375 0.625000
vt 0.859375 0.625000
vt 0.859375 0.812500
vt 0.093750 0.000000
vt 0.343750 0.000000
vt 0.859375 0.734375
vt 0.859375 0.296875
vt 1.000000 0.296875
vt 0.734375 1.000000
vt 0.734375 0.812500
vt 0.859375 0.578125
vt 1.000000 0.578125
vt 1.000000 1.000000
vt 0.843750 0.640625
vt 0.734375 0.640625
vt 0.703125 0.000000
vt 0.703125 0.171875
vt 0.703125 1.000000
vt 1.000000 0.890625
vt 0.859375 0.890625
vt 0.000000 0.171875
vt 0.000000 0.000000
vt 0.000000 1.000000
vt 0.859375 0.984375
vt 0.734375 0.984375
vt 0.734375 0.531250
vt 0.859375 0.359375
vt 1.000000 0.359375
vt 0.812500 0.562500
vt 1.000000 0.734375
vt 0.859375 1.000000
vn 0.881954 0.412549 0.227851
vn 0.871426 0.424543 0.245705
vn 0.640614 0.423322 0.640614
vn 0.502060 0.856471 0.119785
vn 0.641926 0.419324 0.641926
vn 0.245705 0.424543 0.871426
vn 0.227851 0.412549 0.881954
vn 0.194744 0.980033 0.040128
vn 0.063845 0.995911 0.063845
vn 0.000000 1.000000 0.000000
vn 0.040128 0.980033 0.194744
vn 0.455611 0.873348 0.172124
vn 0.322977 0.889553 0.322977
vn 0.119785 0.856471 0.502060
vn 0.350139 0.868770 0.350139
vn 0.408040 0.912964 0.000000
vn 0.546623 0.837379 0.000000
vn 0.913074 0.407795 0.000000
vn 0.894623 0.446821 0.000000
vn 0.227684 0.973735 0.000000
vn 0.000000 0.407795 0.913073
vn 0.000000 0.837379 0.546623
vn 0.000000 0.446821 0.894624
vn 0.172124 0.873348 0.455611
vn 0.000000 0.912964 0.408040
vn 0.000000 0.973735 0.227684
s 1
f 3/1/1 4/2/2 12/3/3
f 5/4/4 3/1/1 11/5/5
f 12/3/3 7/6/6 16/7/7
f 1/8/8 9/8/9 17/8/10
f 6/8/11 17/8/10 9/8/9
f 4/9/2 2/10/12 10/11/13
f 8/12/14 13/13/15 11/5/5
f 13/14/15 8/15/14 6/16/11
f 7/17/6 12/18/3 10/11/13
f 13/19/15 9/20/9 1/21/8
f 2/22/12 19/22/16 23/23/10
f 5/4/4 22/24/17 20/25/18
f 3/1/1 20/25/18 21/26/19
f 2/10/12 4/9/2 21/9/19
f 1/21/8 18/27/20 22/28/17
f 23/23/10 30/23/10 27/23/10
f 16/7/7 29/29/21 26/30/22
f 16/7/7 7/6/6 25/31/23
f 15/32/24 28/32/25 25/33/23
f 14/23/10 27/23/10 28/34/25
f 8/15/14 26/35/22 24/36/26
f 15/34/24 10/37/13 2/22/12
f 11/5/5 3/1/1 12/3/3
f 13/13/15 5/4/4 11/5/5
f 11/5/5 12/3/3 16/7/7
f 12/18/3 4/9/2 10/11/13
f 16/7/7 8/12/14 11/5/5
f 9/38/9 13/14/15 6/16/11
f 15/39/24 7/17/6 10/11/13
f 5/39/4 13/19/15 1/21/8
f 14/23/10 2/22/12 23/23/10
f 3/1/1 5/4/4 20/25/18
f 4/2/2 3/1/1 21/26/19
f 19/10/16 2/10/12 21/9/19
f 5/39/4 1/21/8 22/28/17
f 14/23/10 23/23/10 27/23/10
f 8/12/14 16/7/7 26/30/22
f 29/29/21 16/7/7 25/31/23
f 7/33/6 15/32/24 25/33/23
f 15/34/24 14/23/10 28/34/25
f 6/16/11 8/15/14 24/36/26
f 14/23/10 15/34/24 2/22/12
