# Blender v2.69 (sub 4) OBJ File: 'SizeTest.blend'
# www.blender.org
g wall_02_Cave_Wall_Inner.004
v 0.166670 0.453891 0.400000
v 0.317578 0.079438 0.400000
v 0.264300 0.453891 0.264300
v 0.349887 0.079438 0.349887
v 0.400000 0.453891 0.166670
v 0.400000 0.079438 0.317578
v 0.166670 0.453891 0.500000
v 0.317578 0.079438 0.500000
v 0.500000 0.453891 0.166670
v 0.500000 0.079438 0.317578
v 0.500000 0.000000 0.500000
v 0.071297 1.333254 0.400000
v 0.195375 1.333254 0.195375
v 0.400000 1.333254 0.071297
v 0.071297 1.333254 0.500000
v 0.500000 1.333254 0.071297
v -0.000002 1.459136 0.400000
v -0.000002 1.459136 0.500000
v -0.250002 1.459136 -0.000001
v -0.250002 1.459136 -0.500000
v 0.400000 1.459136 -0.250001
v -0.250002 1.459136 -0.250001
v -0.500003 1.459136 0.400000
v -0.500003 1.459136 0.500000
v -0.250002 1.459136 0.400000
v 0.150991 1.459136 0.150991
v 0.400000 1.459136 -0.000001
v -0.000002 1.459136 -0.500000
v 0.500000 1.459136 -0.000001
v -0.500003 1.459136 -0.250001
v -0.500003 1.459136 -0.500000
v -0.500003 1.459136 -0.000001
v 0.500000 1.459136 -0.250001
v -0.000002 1.459136 -0.250001
v -0.250002 1.459136 0.500000
v -0.000002 1.459136 -0.000001
v 0.400000 1.459136 -0.500000
v 0.500000 1.459136 -0.500000
vt 0.093750 0.906250
vt 0.156250 0.281250
vt 0.343750 0.281250
vt 0.343750 0.000000
vt 0.546875 0.281250
vt 0.609375 0.906250
vt 0.484375 0.000000
vt 0.000000 0.281250
vt 0.000000 0.000000
vt 0.703125 0.000000
vt 0.703125 0.281250
vt 0.703125 0.906250
vt 0.859375 0.500000
vt 0.906250 0.453125
vt 0.984375 0.531250
vt 0.859375 0.531250
vt 0.859375 0.562500
vt 0.906250 0.609375
vt 0.000000 0.906250
vt 0.062500 1.000000
vt 0.875000 0.250000
vt 0.718750 0.984375
vt 0.718750 0.937500
vt 0.843750 0.937500
vt 0.843750 0.984375
vt 0.343750 0.906250
vt 0.640625 1.000000
vt 0.343750 1.000000
vt 0.703125 1.000000
vt 0.843750 0.656250
vt 0.718750 0.656250
vt 0.718750 0.328125
vt 0.843750 0.843750
vt 0.218750 0.000000
vt 0.000000 1.000000
vt 0.843750 0.421875
vn 0.912717 0.308634 0.267617
vn 0.929075 0.226356 0.292489
vn 0.692953 0.199011 0.692953
vn 0.525712 0.668752 0.525712
vn 0.292489 0.226356 0.929075
vn 0.267617 0.308634 0.912717
vn 0.225654 0.670949 0.706290
vn 0.970000 0.243105 0.000000
vn 0.716797 0.697281 0.000000
vn 0.000000 0.697282 0.716797
vn 0.000000 0.243105 0.970000
vn 0.000000 0.306664 0.951818
vn 0.706290 0.670949 0.225654
vn 0.222964 0.948986 0.222964
vn 0.951818 0.306665 0.000000
vn 0.424451 0.898801 0.109348
vn 0.000000 1.000000 0.000000
vn 0.503572 0.863953 0.000000
vn 0.000000 0.863953 0.503573
vn 0.676687 0.290017 0.676687
vn 0.109348 0.898801 0.424451
vn 0.327494 0.886258 0.327494
s 1
f 12/1/1 1/2/2 3/3/3
f 4/4/4 3/3/3 1/2/2
f 3/3/3 5/5/5 14/6/6
f 4/4/4 6/7/7 5/5/5
f 1/2/2 7/8/8 8/9/9
f 6/7/7 10/10/10 9/11/11
f 5/5/5 9/11/11 16/12/12
f 2/13/13 8/14/9 11/15/14
f 2/13/13 11/15/14 4/16/4
f 4/16/4 11/15/14 6/17/7
f 10/18/10 6/17/7 11/15/14
f 12/1/1 15/19/15 7/8/8
f 15/19/15 12/1/1 17/20/16
f 34/21/17 28/21/17 20/21/17
f 25/22/17 35/23/17 18/24/18
f 29/23/19 33/24/17 21/25/17
f 13/26/20 14/6/6 27/27/21
f 19/21/17 22/21/17 30/21/17
f 13/26/20 26/28/22 17/20/16
f 14/6/6 16/12/12 29/29/19
f 25/21/17 19/21/17 32/21/17
f 36/21/17 34/21/17 22/21/17
f 23/21/17 24/21/17 35/21/17
f 22/21/17 20/21/17 31/21/17
f 26/30/22 36/31/17 25/32/17
f 33/21/17 38/21/17 37/21/17
f 21/21/17 37/21/17 28/21/17
f 26/30/22 27/33/21 21/22/17
f 25/21/17 36/21/17 19/21/17
f 36/21/17 21/21/17 34/21/17
f 13/26/20 12/1/1 3/3/3
f 2/34/13 4/4/4 1/2/2
f 13/26/20 3/3/3 14/6/6
f 3/3/3 4/4/4 5/5/5
f 2/34/13 1/2/2 8/9/9
f 5/5/5 6/7/7 9/11/11
f 14/6/6 5/5/5 16/12/12
f 1/2/2 12/1/1 7/8/8
f 18/35/18 15/19/15 17/20/16
f 22/21/17 34/21/17 20/21/17
f 17/25/16 25/22/17 18/24/18
f 27/22/21 29/23/19 21/25/17
f 26/28/22 13/26/20 27/27/21
f 32/21/17 19/21/17 30/21/17
f 12/1/1 13/26/20 17/20/16
f 27/27/21 14/6/6 29/29/19
f 23/21/17 25/21/17 32/21/17
f 19/21/17 36/21/17 22/21/17
f 25/21/17 23/21/17 35/21/17
f 30/21/17 22/21/17 31/21/17
f 17/36/16 26/30/22 25/32/17
f 21/21/17 33/21/17 37/21/17
f 34/21/17 21/21/17 28/21/17
f 36/31/17 26/30/22 21/22/17
