# Blender v2.69 (sub 4) OBJ File: 'SizeTest.blend'
# www.blender.org
g wall_03_Cave_Wall_Straight.005
v -0.500000 0.000000 0.500000
v -0.500000 0.000000 -0.500000
v -0.166670 0.453891 0.500000
v -0.166670 0.453891 -0.500000
v 0.500003 1.459136 -0.500000
v 0.500003 1.459136 0.500000
v -0.317577 0.079438 0.500000
v -0.317578 0.079438 -0.500000
v -0.071297 1.333254 0.500000
v -0.071297 1.333254 -0.500000
v 0.250002 1.459136 0.500000
v 0.250002 1.459136 -0.500000
v 0.000002 1.459136 0.500000
v 0.000001 1.459136 -0.500000
vt 0.890625 0.203125
vt 0.703125 0.000000
vt 0.703125 0.281250
vt 0.000000 0.281250
vt 0.859375 1.000000
vt 0.859375 0.296875
vt 1.000000 0.296875
vt 0.703125 0.906250
vt 0.000000 0.906250
vt 0.843750 0.296875
vt 0.843750 1.000000
vt 0.718750 1.000000
vt 0.703125 1.000000
vt 0.000000 1.000000
vt 0.000000 0.000000
vt 1.000000 1.000000
vt 0.718750 0.296875
vn 0.000000 1.000000 -0.000000
vn -0.716797 0.697281 0.000000
vn -0.970000 0.243105 0.000000
vn -0.716798 0.697281 0.000000
vn -0.399249 0.916843 0.000000
vn -0.951818 0.306665 0.000000
vn -0.503572 0.863953 0.000000
vn -0.399248 0.916843 0.000000
s 1
f 6/1/1 5/1/1 12/1/1
f 7/2/2 3/3/3 4/4/3
f 7/5/2 8/6/4 2/7/5
f 3/3/3 9/8/6 10/9/6
f 11/10/1 12/11/1 14/12/7
f 9/8/6 13/13/7 14/14/7
f 11/1/1 6/1/1 12/1/1
f 8/15/4 7/2/2 4/4/3
f 1/16/8 7/5/2 2/7/5
f 4/4/3 3/3/3 10/9/6
f 13/17/7 11/10/1 14/12/7
f 10/9/6 9/8/6 14/14/7
