# Blender v2.69 (sub 4) OBJ File: 'SizeTest.blend'
# www.blender.org
g wall_08_Cave_Wall_Inner.017
v 0.500000 1.459136 0.000000
v 0.166670 0.453891 -0.399999
v 0.317578 0.079438 -0.399999
v 0.264300 0.453891 -0.264299
v 0.349887 0.079438 -0.349886
v 0.400000 0.453891 -0.166669
v 0.400000 0.079438 -0.317576
v 0.166670 0.453891 -0.499999
v 0.317578 0.079438 -0.499999
v 0.500000 0.453891 -0.166669
v 0.500000 0.079438 -0.317576
v 0.500000 0.000000 -0.499999
v 0.071297 1.333254 -0.399999
v 0.195375 1.333254 -0.195374
v 0.400000 1.333254 -0.071296
v 0.071297 1.333254 -0.499999
v 0.500000 1.333254 -0.071296
v -0.000002 1.459136 -0.399999
v -0.000002 1.459136 -0.499999
v 0.150991 1.459136 -0.150989
v -0.500000 0.000000 0.500001
v 0.500000 0.000000 0.500001
v -0.500000 0.453891 0.166671
v 0.500000 0.453891 0.166671
v -0.500000 0.079438 0.317579
v 0.500000 0.079438 0.317579
v -0.500000 1.333254 0.071299
v 0.500000 1.333254 0.071299
v -0.500000 1.459136 0.000000
v 0.000000 0.000000 0.500001
v 0.000000 0.453891 0.166671
v 0.000000 0.079438 0.317579
v 0.000000 1.333254 0.071299
v 0.000000 1.459136 0.000000
v 0.400000 1.333254 0.071299
v -0.500000 1.459136 -0.500000
v 0.400000 1.459136 -0.000000
v 0.400000 0.000000 0.500001
v 0.400000 0.453891 0.166671
v -0.500000 1.459136 -0.400000
v 0.400000 0.079438 0.317579
v -0.250001 1.459136 -0.399999
v -0.250001 1.459136 -0.499999
v -0.250000 1.459136 0.000000
v -0.250000 1.333254 0.071299
v -0.250000 0.079438 0.317579
v -0.250000 0.453891 0.166671
v -0.250000 0.000000 0.500001
v -0.500000 1.459136 -0.200000
v -0.250001 1.459136 -0.200000
vt 0.359375 0.906250
vt 0.359375 0.281250
vt 0.609375 0.281250
vt 0.609375 0.000000
vt 0.093750 0.906250
vt 0.093750 0.281250
vt 0.093750 0.000000
vt 0.703125 0.000000
vt 0.703125 0.281250
vt 0.000000 0.281250
vt 0.000000 0.000000
vt 0.000000 0.906250
vt 0.859375 0.500000
vt 0.984375 0.531250
vt 0.906250 0.453125
vt 0.859375 0.531250
vt 0.859375 0.562500
vt 0.906250 0.609375
vt 0.703125 0.906250
vt 0.703125 1.000000
vt 0.609375 1.000000
vt 0.609375 0.906250
vt 0.359375 1.000000
vt 0.640625 0.000000
vt 1.000000 0.367188
vt 1.000000 0.296875
vt 0.859375 0.296875
vt 0.640625 0.281250
vt 0.179688 0.000000
vt 0.359375 0.000000
vt 0.179688 0.281250
vt 0.859375 0.250000
vt 0.859375 0.648438
vt 1.000000 0.648438
vt 0.640625 0.906250
vt 0.640625 1.000000
vt 0.093750 1.000000
vt 0.000000 1.000000
vt 1.000000 0.824219
vt 0.179688 1.000000
vt 0.179688 0.906250
vt 1.000000 1.000000
vt 0.859375 0.824219
vt 0.859375 0.367188
vt 0.859375 1.000000
vn 0.678030 0.283731 -0.678030
vn 0.691183 0.211005 -0.691183
vn 0.928495 0.232459 -0.289560
vn 0.708090 0.667348 -0.230628
vn 0.265816 0.305612 -0.914274
vn 0.289560 0.232459 -0.928495
vn 0.230628 0.667348 -0.708090
vn 0.716798 0.697281 0.000000
vn 0.970000 0.243105 0.000000
vn 0.000000 0.243105 -0.970000
vn 0.000000 0.697281 -0.716798
vn 0.000000 0.306656 -0.951820
vn 0.222964 0.948986 -0.222964
vn 0.529466 0.662801 -0.529466
vn 0.951818 0.306665 0.000000
vn 0.503572 0.863953 0.000000
vn 0.424451 0.898801 -0.109348
vn 0.914274 0.305612 -0.265816
vn 0.327494 0.886258 -0.327494
vn 0.000000 0.697256 0.716788
vn 0.000000 0.697281 0.716797
vn 0.000000 0.243105 0.970000
vn 0.000000 0.916843 0.399249
vn 0.000000 0.916843 0.399248
vn 0.000000 0.243080 0.969970
vn 0.000000 0.306665 0.951818
vn 0.000000 0.306650 0.951811
vn 0.000000 1.000000 0.000000
vn 0.000000 0.863953 0.503572
vn 0.174383 0.979400 0.101566
vn 0.000000 1.000000 -0.000008
vn 0.000000 0.863948 0.503555
vn 0.000000 0.697281 0.716798
s 1
f 14/1/1 4/2/2 2/3/3
f 3/4/4 2/3/3 4/2/2
f 14/1/1 15/5/5 6/6/6
f 4/2/2 6/6/6 7/7/7
f 3/4/4 9/8/8 8/9/9
f 6/6/6 10/10/10 11/11/11
f 17/12/12 10/10/10 6/6/6
f 3/13/4 12/14/13 9/15/8
f 3/13/4 5/16/14 12/14/13
f 5/16/14 7/17/7 12/14/13
f 11/18/11 12/14/13 7/17/7
f 2/3/3 8/9/9 16/19/15
f 16/19/15 19/20/16 18/21/17
f 13/22/18 18/21/17 20/23/19
f 41/24/20 26/8/21 24/9/22
f 38/25/23 22/26/24 26/27/21
f 39/28/25 24/9/22 28/19/26
f 46/29/20 32/30/20 31/2/25
f 47/31/25 31/2/25 33/1/27
f 42/32/28 18/32/17 19/32/16
f 50/32/28 49/32/28 29/32/29
f 31/2/25 32/30/20 41/24/20
f 32/33/20 30/34/23 38/25/23
f 33/1/27 31/2/25 39/28/25
f 33/1/27 35/35/27 37/36/30
f 37/37/30 1/38/31 17/12/12
f 37/32/30 20/32/19 34/32/32
f 20/23/19 37/37/30 15/5/5
f 40/32/28 42/32/28 43/32/28
f 1/20/31 37/36/30 35/35/27
f 25/11/33 46/29/20 47/31/25
f 48/39/23 30/34/23 32/33/20
f 34/23/32 44/40/32 45/41/27
f 21/42/23 48/39/23 46/43/20
f 34/32/32 42/32/28 50/32/28
f 23/10/22 47/31/25 45/41/27
f 42/32/28 40/32/28 49/32/28
f 44/40/32 29/38/29 27/12/26
f 18/32/17 42/32/28 34/32/32
f 13/22/18 14/1/1 2/3/3
f 5/30/14 3/4/4 4/2/2
f 4/2/2 14/1/1 6/6/6
f 5/30/14 4/2/2 7/7/7
f 2/3/3 3/4/4 8/9/9
f 7/7/7 6/6/6 11/11/11
f 15/5/5 17/12/12 6/6/6
f 13/22/18 2/3/3 16/19/15
f 13/22/18 16/19/15 18/21/17
f 14/1/1 13/22/18 20/23/19
f 39/28/25 41/24/20 24/9/22
f 41/44/20 38/25/23 26/27/21
f 35/35/27 39/28/25 28/19/26
f 47/31/25 46/29/20 31/2/25
f 45/41/27 47/31/25 33/1/27
f 43/32/28 42/32/28 19/32/16
f 44/32/32 50/32/28 29/32/29
f 39/28/25 31/2/25 41/24/20
f 41/44/20 32/33/20 38/25/23
f 35/35/27 33/1/27 39/28/25
f 34/23/32 33/1/27 37/36/30
f 15/5/5 37/37/30 17/12/12
f 14/1/1 20/23/19 15/5/5
f 36/32/28 40/32/28 43/32/28
f 28/19/26 1/20/31 35/35/27
f 23/10/22 25/11/33 47/31/25
f 46/43/20 48/39/23 32/33/20
f 33/1/27 34/23/32 45/41/27
f 25/45/33 21/42/23 46/43/20
f 44/32/32 34/32/32 50/32/28
f 27/12/26 23/10/22 45/41/27
f 50/32/28 42/32/28 49/32/28
f 45/41/27 44/40/32 27/12/26
f 20/32/19 18/32/17 34/32/32
