# Blender v2.69 (sub 4) OBJ File: 'SizeTest.blend'
# www.blender.org
g wall_06_Cave_Wall_Inner.016
v 0.500000 1.459136 0.000001
v 0.166670 0.453891 0.400000
v 0.317578 0.079438 0.400000
v 0.264300 0.453891 0.264300
v 0.349887 0.079438 0.349887
v 0.400000 0.453891 0.166670
v 0.400000 0.079438 0.317578
v 0.166670 0.453891 0.500000
v 0.317578 0.079438 0.500000
v 0.500000 0.453891 0.166670
v 0.500000 0.079438 0.317578
v 0.500000 0.000000 0.500000
v 0.071297 1.333254 0.400000
v 0.195375 1.333254 0.195375
v 0.400000 1.333254 0.071297
v 0.071297 1.333254 0.500000
v 0.500000 1.333254 0.071297
v -0.000002 1.459136 0.400000
v -0.000002 1.459136 0.500000
v 0.150991 1.459136 0.150991
v -0.500000 0.000000 -0.500000
v 0.500000 0.000000 -0.500000
v -0.500000 0.453891 -0.166670
v 0.500000 0.453891 -0.166670
v -0.500000 0.079438 -0.317578
v 0.500000 0.079438 -0.317578
v -0.500000 1.333254 -0.071297
v 0.500000 1.333254 -0.071297
v -0.500000 1.459136 0.000001
v 0.000000 0.000000 -0.500000
v 0.000000 0.453891 -0.166670
v 0.000000 0.079438 -0.317578
v 0.000000 1.333254 -0.071297
v 0.000000 1.459136 0.000001
v 0.400000 1.333254 -0.071297
v -0.500000 1.459136 0.500001
v 0.400000 1.459136 0.000001
v 0.400000 0.000000 -0.500000
v 0.400000 0.453891 -0.166670
v -0.500000 1.459136 0.400001
v 0.400000 0.079438 -0.317578
v -0.250000 1.333254 -0.071297
v -0.250000 0.079438 -0.317578
v -0.250000 0.453891 -0.166670
v -0.250000 0.000000 -0.500000
v -0.250000 1.459136 0.200001
v -0.500000 1.459136 0.200001
v -0.250000 1.459136 0.000001
v -0.250001 1.459136 0.500001
v -0.250001 1.459136 0.400001
vt 0.093750 0.281250
vt 0.343750 0.281250
vt 0.343750 0.906250
vt 0.093750 0.000000
vt 0.343750 0.000000
vt 0.609375 0.281250
vt 0.609375 0.000000
vt 0.000000 0.281250
vt 0.703125 0.000000
vt 0.703125 0.281250
vt 0.703125 0.906250
vt 0.859375 0.500000
vt 0.906250 0.453125
vt 0.984375 0.531250
vt 0.859375 0.531250
vt 0.859375 0.562500
vt 0.906250 0.609375
vt 0.093750 0.906250
vt 0.000000 0.906250
vt 0.093750 1.000000
vt 0.343750 1.000000
vt 0.070312 0.000000
vt 0.070312 0.281250
vt 1.000000 0.367188
vt 0.859375 0.367188
vt 0.859375 0.296875
vt 0.070312 0.906250
vt 0.527344 0.000000
vt 0.527344 0.281250
vt 0.351562 0.281250
vt 0.527344 0.906250
vt 0.351562 0.906250
vt 0.859375 0.250000
vt 0.859375 0.648438
vt 0.351562 1.000000
vt 0.070312 1.000000
vt 0.609375 1.000000
vt 0.609375 0.906250
vt 0.000000 1.000000
vt 1.000000 0.824219
vt 0.859375 0.824219
vt 1.000000 1.000000
vt 0.859375 1.000000
vt 0.703125 1.000000
vt 0.527344 1.000000
vt 0.000000 0.000000
vt 1.000000 0.296875
vt 0.351562 0.000000
vt 1.000000 0.648438
vn 0.928495 0.232459 0.289560
vn 0.691183 0.211005 0.691183
vn 0.678030 0.283731 0.678030
vn 0.708090 0.667348 0.230628
vn 0.529466 0.662801 0.529466
vn 0.289560 0.232459 0.928495
vn 0.230628 0.667348 0.708090
vn 0.970000 0.243105 0.000000
vn 0.000000 0.697281 0.716798
vn 0.000000 0.243105 0.970000
vn 0.000000 0.306656 0.951820
vn 0.716798 0.697281 0.000000
vn 0.222964 0.948986 0.222964
vn 0.914274 0.305612 0.265816
vn 0.951818 0.306665 0.000000
vn 0.424451 0.898801 0.109348
vn 0.327494 0.886258 0.327494
vn 0.000000 0.697256 -0.716788
vn 0.000000 0.243080 -0.969970
vn 0.000000 0.243105 -0.970000
vn 0.000000 0.916843 -0.399249
vn 0.000000 0.697281 -0.716797
vn 0.000000 0.306650 -0.951811
vn 0.000000 0.306665 -0.951818
vn 0.000000 1.000000 0.000000
vn 0.000000 0.863948 -0.503555
vn 0.174383 0.979400 -0.101566
vn 0.265816 0.305612 0.914274
vn 0.503572 0.863953 0.000000
vn 0.000000 1.000000 0.000007
vn 0.000000 0.863953 -0.503572
vn 0.000000 0.916843 -0.399248
s 1
f 2/1/1 4/2/2 14/3/3
f 3/4/4 5/5/5 4/2/2
f 14/3/3 4/2/2 6/6/6
f 7/7/7 6/6/6 4/2/2
f 3/4/4 2/1/1 8/8/8
f 6/6/6 7/7/7 11/9/9
f 6/6/6 10/10/10 17/11/11
f 3/12/4 9/13/12 12/14/13
f 3/12/4 12/14/13 5/15/5
f 5/15/5 12/14/13 7/16/7
f 11/17/9 7/16/7 12/14/13
f 2/1/1 13/18/14 16/19/15
f 16/19/15 13/18/14 18/20/16
f 13/18/14 14/3/3 20/21/17
f 41/22/18 39/23/19 24/8/20
f 38/24/21 41/25/18 26/26/22
f 39/23/19 35/27/23 28/19/24
f 43/28/18 44/29/19 31/30/19
f 44/29/19 42/31/23 33/32/23
f 40/33/25 36/33/25 49/33/25
f 31/30/19 39/23/19 41/22/18
f 32/34/18 41/25/18 38/24/21
f 33/32/23 35/27/23 39/23/19
f 33/32/23 34/35/26 37/36/27
f 37/37/27 15/38/28 17/11/11
f 37/33/27 34/33/26 20/33/17
f 15/38/28 37/37/27 20/21/17
f 50/33/25 49/33/25 19/33/29
f 35/27/23 37/36/27 1/39/30
f 25/9/22 23/10/20 44/29/19
f 45/40/21 43/41/18 32/34/18
f 23/10/20 27/11/24 42/31/23
f 47/33/25 40/33/25 50/33/25
f 29/33/31 47/33/25 46/33/25
f 21/42/21 25/43/22 43/41/18
f 42/31/23 27/11/24 29/44/31
f 33/32/23 42/31/23 48/45/26
f 34/33/26 48/33/26 46/33/25
f 18/33/16 20/33/17 34/33/26
f 13/18/14 2/1/1 14/3/3
f 2/1/1 3/4/4 4/2/2
f 15/38/28 14/3/3 6/6/6
f 5/5/5 7/7/7 4/2/2
f 9/46/12 3/4/4 8/8/8
f 10/10/10 6/6/6 11/9/9
f 15/38/28 6/6/6 17/11/11
f 8/8/8 2/1/1 16/19/15
f 19/39/29 16/19/15 18/20/16
f 18/20/16 13/18/14 20/21/17
f 26/46/22 41/22/18 24/8/20
f 22/47/32 38/24/21 26/26/22
f 24/8/20 39/23/19 28/19/24
f 32/48/18 43/28/18 31/30/19
f 31/30/19 44/29/19 33/32/23
f 50/33/25 40/33/25 49/33/25
f 32/48/18 31/30/19 41/22/18
f 30/49/21 32/34/18 38/24/21
f 31/30/19 33/32/23 39/23/19
f 35/27/23 33/32/23 37/36/27
f 1/44/30 37/37/27 17/11/11
f 14/3/3 15/38/28 20/21/17
f 18/33/16 50/33/25 19/33/29
f 28/19/24 35/27/23 1/39/30
f 43/28/18 25/9/22 44/29/19
f 30/49/21 45/40/21 32/34/18
f 44/29/19 23/10/20 42/31/23
f 46/33/25 47/33/25 50/33/25
f 48/33/26 29/33/31 46/33/25
f 45/40/21 21/42/21 43/41/18
f 48/45/26 42/31/23 29/44/31
f 34/35/26 33/32/23 48/45/26
f 50/33/25 34/33/26 46/33/25
f 50/33/25 18/33/16 34/33/26
