# Blender v2.69 (sub 4) OBJ File: 'SizeTest.blend'
# www.blender.org
g wall_15_Cave_Wall_Inner.011
v -0.117854 0.453891 -0.117856
v -0.224562 0.079438 -0.224564
v -0.051482 1.333254 -0.051483
v -0.000001 1.333254 0.072052
v -0.072052 1.333254 0.000000
v -0.166670 0.453891 0.000002
v -0.000001 1.459136 0.000002
v -0.317577 0.079438 0.000002
v -0.000001 0.000000 0.500003
v -0.051483 1.333254 0.051482
v -0.224564 0.079438 0.224562
v -0.117856 0.453891 0.117854
v -0.353556 0.000000 0.353554
v -0.000002 0.079438 0.317579
v -0.000002 0.453891 0.166671
v 0.166671 0.453891 0.000002
v 0.317579 0.079438 0.000002
v 0.353554 0.000000 0.353556
v 0.117854 0.453891 0.117856
v 0.224562 0.079438 0.224564
v 0.051482 1.333254 0.051483
v 0.072052 1.333254 0.000001
v -0.000002 0.000000 -0.500000
v -0.500003 0.000000 -0.000001
v -0.000002 0.079438 -0.317577
v 0.051483 1.333254 -0.051482
v 0.224564 0.079438 -0.224562
v 0.117856 0.453891 -0.117854
v -0.000002 0.453891 -0.166670
v -0.000000 1.333254 -0.072052
v -0.500003 0.000000 0.499999
v -0.499999 0.000000 -0.500003
v 0.500003 0.000000 -0.499999
v 0.499999 0.000000 0.500003
v 0.499999 0.000000 0.000003
v 0.353556 0.000000 -0.353554
v -0.353554 0.000000 -0.353556
v -0.500003 0.000000 0.209049
v -0.500001 0.000000 -0.209054
v -0.414785 0.000000 0.414784
v -0.209054 0.000000 0.500001
v 0.209050 0.000000 0.500003
v 0.414784 0.000000 0.414785
v 0.499999 0.000000 0.209056
v 0.500000 0.000000 -0.209050
v 0.414786 0.000000 -0.414784
v -0.414783 0.000000 -0.414786
v -0.209052 0.000000 -0.500001
v 0.209053 0.000000 -0.499999
vt 0.625000 0.906250
vt 0.703125 0.906250
vt 0.531250 1.000000
vt 0.359375 0.906250
vt 0.437500 0.906250
vt 0.437500 0.000000
vt 0.437500 0.281250
vt 0.359375 0.281250
vt 1.000000 0.828125
vt 0.859375 0.781250
vt 0.859375 0.593750
vt 1.000000 0.546875
vt 0.171875 0.281250
vt 0.093750 0.281250
vt 0.093750 0.000000
vt 0.171875 0.906250
vt 0.265625 0.906250
vt 0.171875 1.000000
vt 0.265625 0.000000
vt 0.265625 0.281250
vt 0.359375 0.000000
vt 0.531250 0.000000
vt 0.531250 0.281250
vt 0.000000 0.281250
vt 0.531250 0.906250
vt 0.625000 0.000000
vt 0.625000 0.281250
vt 0.703125 0.281250
vt 0.093750 0.906250
vt 0.000000 0.906250
vt 0.171875 0.000000
vt 0.000000 0.000000
vt 0.703125 0.000000
vt 0.984375 0.484375
vn 0.675466 0.295755 -0.675436
vn 0.000000 0.294198 -0.955718
vn 0.000000 1.000000 0.000000
vn 0.000000 0.294168 0.955718
vn 0.675436 0.295755 0.675466
vn 0.469985 0.747093 0.469985
vn 0.684469 0.250954 0.684469
vn 0.000000 0.250954 0.967986
vn 0.109012 0.988037 0.109012
vn 0.000000 0.747093 0.664663
vn -0.469985 0.747093 0.469985
vn -0.664663 0.747093 0.000000
vn -0.305323 0.952249 -0.000002
vn -0.967986 0.250954 0.000000
vn -0.684469 0.250954 -0.684469
vn -0.469985 0.747093 -0.469985
vn -0.955718 0.294168 0.000000
vn -0.675466 0.295755 0.675436
vn -0.684469 0.250954 0.684469
vn -0.000000 0.952248 0.305325
vn 0.664693 0.747093 0.000000
vn 0.967986 0.250954 0.000000
vn 0.000000 0.250954 -0.967986
vn 0.955718 0.294198 0.000000
vn 0.469985 0.747093 -0.469985
vn 0.684469 0.250954 -0.684469
vn -0.675436 0.295755 -0.675466
vn -0.109012 0.988037 -0.109012
vn 0.000000 0.747093 -0.664693
vn 0.109012 0.988037 -0.109012
vn -0.109012 0.988037 0.109012
vn 0.305332 0.952246 0.000001
vn -0.000000 0.952247 -0.305327
vn 0.000000 0.999969 0.000000
s 1
f 26/1/1 30/2/2 7/3/3
f 4/4/4 21/5/5 7/3/3
f 20/6/6 19/7/7 15/8/8
f 18/9/9 20/10/6 14/11/10
f 4/4/4 15/8/8 19/7/7
f 11/10/11 8/11/12 24/12/13
f 6/13/14 1/14/15 2/15/16
f 5/16/17 10/17/18 7/18/3
f 11/19/11 12/20/19 6/13/14
f 5/16/17 6/13/14 12/20/19
f 9/9/20 14/10/10 11/11/11
f 14/21/10 15/8/8 12/20/19
f 17/22/21 16/23/22 19/7/7
f 2/15/16 1/14/15 29/24/23
f 22/25/24 26/1/1 7/3/3
f 27/26/25 28/27/26 16/23/22
f 22/25/24 16/23/22 28/27/26
f 29/28/23 28/27/26 27/26/25
f 30/2/2 26/1/1 28/27/26
f 21/5/5 22/25/24 7/3/3
f 5/16/17 3/29/27 1/14/15
f 10/17/18 4/4/4 7/18/3
f 4/4/4 10/17/18 12/20/19
f 22/25/24 21/5/5 19/7/7
f 30/30/2 29/24/23 1/14/15
f 30/30/2 3/29/27 7/18/3
f 3/29/27 5/16/17 7/18/3
f 17/10/21 20/11/6 18/12/9
f 37/9/28 2/10/16 25/11/29
f 36/9/30 27/10/25 17/11/21
f 8/10/12 2/11/16 37/12/28
f 25/10/29 27/11/25 36/12/30
f 14/21/10 20/6/6 15/8/8
f 9/12/20 18/9/9 14/11/10
f 21/5/5 4/4/4 19/7/7
f 13/9/31 11/10/11 24/12/13
f 8/31/12 6/13/14 2/15/16
f 8/31/12 11/19/11 6/13/14
f 10/17/18 5/16/17 12/20/19
f 13/12/31 9/9/20 11/11/11
f 11/19/11 14/21/10 12/20/19
f 20/6/6 17/22/21 19/7/7
f 25/32/29 2/15/16 29/24/23
f 17/22/21 27/26/25 16/23/22
f 26/1/1 22/25/24 28/27/26
f 25/33/29 29/28/23 27/26/25
f 29/28/23 30/2/2 28/27/26
f 6/13/14 5/16/17 1/14/15
f 15/8/8 4/4/4 12/20/19
f 16/23/22 22/25/24 19/7/7
f 3/29/27 30/30/2 1/14/15
f 35/9/32 17/10/21 18/12/9
f 23/12/33 37/9/28 25/11/29
f 35/12/32 36/9/30 17/11/21
f 24/9/13 8/10/12 37/12/28
f 23/9/33 25/10/29 36/12/30
f 31/34/3 41/34/3 40/34/34
f 34/34/3 43/34/34 42/34/3
f 33/34/3 49/34/3 46/34/3
f 32/34/3 47/34/34 48/34/3
f 32/34/3 39/34/3 47/34/34
f 34/34/3 44/34/3 43/34/34
f 33/34/3 46/34/3 45/34/3
f 31/34/3 40/34/34 38/34/3
f 40/34/34 13/34/31 24/34/13
f 40/34/34 41/34/3 9/34/20
f 43/34/34 18/34/9 9/34/20
f 43/34/34 44/34/3 35/34/32
f 46/34/3 36/34/30 35/34/32
f 47/34/34 39/34/3 24/34/13
f 47/34/34 37/34/28 23/34/33
f 46/34/3 49/34/3 23/34/33
f 38/34/3 40/34/34 24/34/13
f 13/34/31 40/34/34 9/34/20
f 42/34/3 43/34/34 9/34/20
f 18/34/9 43/34/34 35/34/32
f 45/34/3 46/34/3 35/34/32
f 37/34/28 47/34/34 24/34/13
f 48/34/3 47/34/34 23/34/33
f 36/34/30 46/34/3 23/34/33
