# Blender v2.69 (sub 4) OBJ File: 'SizeTest.blend'
# www.blender.org
g wall_14_Cave_Wall_Outer.002
v 0.500000 0.000000 0.000000
v 0.166670 0.453891 0.000000
v 0.317578 0.079438 0.000000
v 0.500000 0.000000 -0.500000
v 0.166670 0.453891 -0.500000
v 0.317578 0.079438 -0.500000
v 0.353553 0.000000 0.353554
v 0.071297 1.333254 -0.000000
v 0.117853 0.453891 0.117854
v 0.224561 0.079438 0.224562
v 0.051480 1.333254 0.051482
v -0.000002 0.000000 0.500001
v -0.000002 0.453891 0.166671
v -0.000002 0.079438 0.317579
v -0.000001 1.333254 0.072806
v -0.353556 0.000000 0.353554
v -0.224564 0.079438 0.224562
v -0.500003 0.000000 -0.000000
v -0.500003 0.000000 -0.500000
v -0.000001 1.459136 -0.000000
v 0.071297 1.333254 -0.500000
v -0.000001 1.459136 -0.500000
v 0.166670 0.453891 -0.100000
v 0.317578 0.079438 -0.100000
v 0.500000 0.000000 -0.100000
v -0.500003 0.000000 -0.100000
v 0.071297 1.333254 -0.100000
v -0.000001 1.459136 -0.100000
v -0.166670 0.453891 0.000000
v -0.317578 0.079438 0.000000
v -0.166670 0.453891 -0.500000
v -0.317578 0.079438 -0.500000
v -0.071297 1.333254 -0.000000
v -0.117853 0.453891 0.117854
v -0.051480 1.333254 0.051482
v -0.071297 1.333254 -0.500000
v -0.166670 0.453891 -0.100000
v -0.317578 0.079438 -0.100000
v -0.071297 1.333254 -0.100000
v 0.499998 0.000000 0.500001
v -0.500002 0.000000 0.500001
v 0.414782 0.000000 0.414784
v 0.499999 0.000000 0.209052
v 0.209049 0.000000 0.500001
v -0.209052 0.000000 0.500001
v -0.414785 0.000000 0.414783
v -0.500002 0.000000 0.209051
vt 0.312500 0.000000
vt 0.703125 0.000000
vt 0.703125 0.281250
vt 1.000000 0.671875
vt 1.000000 1.000000
vt 0.859375 1.000000
vt 0.203125 0.906250
vt 0.093750 0.906250
vt 0.093750 0.281250
vt 0.203125 0.281250
vt 0.093750 0.000000
vt 1.000000 0.828125
vt 0.859375 0.765625
vt 0.859375 0.562500
vt 0.000000 0.906250
vt 0.000000 0.281250
vt 0.312500 0.281250
vt 0.000000 1.000000
vt 0.312500 0.906250
vt 0.703125 0.906250
vt 0.703125 1.000000
vt 0.203125 0.000000
vt 1.000000 0.593750
vt 0.859375 0.671875
vt 0.312500 1.000000
vt 0.000000 0.000000
vt 0.390625 0.000000
vt 0.500000 0.906250
vt 0.500000 0.281250
vt 0.609375 0.281250
vt 0.390625 0.281250
vt 0.390625 0.906250
vt 1.000000 0.500000
vt 0.859375 0.625000
vt 0.859375 0.296875
vt 1.000000 0.296875
vt 0.859375 0.703125
vt 1.000000 0.625000
vt 0.609375 0.000000
vt 0.609375 0.906250
vt 0.390625 1.000000
vt 0.859375 0.593750
vt 0.500000 0.000000
vt 1.000000 0.703125
vt 0.984375 0.484375
vn 0.716788 0.697256 0.000000
vn 0.716797 0.697281 -0.000000
vn 0.970000 0.243105 0.000000
vn 0.399249 0.916843 -0.000000
vn 0.399248 0.916843 0.000000
vn 0.939726 0.295328 0.172246
vn 0.683676 0.295724 0.667135
vn 0.684622 0.250954 0.684317
vn 0.950804 0.242500 0.192633
vn 0.469985 0.747093 0.469985
vn 0.352132 0.933824 0.063052
vn 0.684103 0.716086 0.138585
vn 0.000000 0.296152 0.955107
vn 0.000000 0.250557 0.968078
vn 0.109012 0.988037 0.109012
vn 0.000000 0.747093 0.664663
vn -0.000000 0.952248 0.305326
vn -0.469985 0.747093 0.469985
vn 0.969970 0.243080 0.000000
vn 0.000000 0.933531 0.358470
vn 0.951811 0.306650 0.000000
vn 0.951817 0.306665 0.000000
vn -0.000008 1.000000 0.000000
vn 0.000000 1.000000 0.000000
vn -0.970000 0.243105 0.000000
vn -0.716795 0.697284 -0.000000
vn -0.716788 0.697256 0.000000
vn -0.939726 0.295328 0.172246
vn -0.950804 0.242500 0.192633
vn -0.684622 0.250954 0.684286
vn -0.969970 0.243080 0.000000
vn -0.951811 0.306650 0.000000
vn -0.109012 0.988037 0.109012
vn -0.684103 0.716086 0.138585
vn -0.399243 0.916845 -0.000000
vn -0.683676 0.295724 0.667135
vn -0.951820 0.306657 0.000000
vn -0.352128 0.933826 0.063051
s 1
f 24/1/1 6/2/2 5/3/3
f 25/4/4 4/5/5 6/6/2
f 8/7/6 11/8/7 9/9/8
f 2/10/9 9/9/8 10/11/10
f 1/12/11 3/13/12 10/14/10
f 11/8/7 15/15/13 13/16/14
f 7/12/15 10/13/10 14/14/16
f 10/11/10 9/9/8 13/16/14
f 12/12/17 14/13/16 17/14/18
f 8/7/6 2/10/9 23/17/19
f 15/15/13 11/8/7 20/18/20
f 11/8/7 8/7/6 20/18/20
f 27/19/21 21/20/22 22/21/23
f 2/10/9 3/22/12 24/1/1
f 1/23/11 25/4/4 24/24/1
f 21/20/22 27/19/21 23/17/19
f 8/7/6 27/19/21 28/25/24
f 31/16/25 32/26/26 38/27/27
f 33/28/28 29/29/29 34/30/30
f 37/31/31 29/29/29 33/28/28
f 29/29/29 37/31/31 38/27/27
f 31/16/25 37/31/31 39/32/32
f 16/33/33 17/14/18 30/13/34
f 38/34/27 32/35/26 19/36/35
f 30/37/34 38/34/27 26/38/35
f 17/39/18 34/30/30 29/29/29
f 35/40/36 34/30/30 13/3/14
f 17/39/18 14/2/16 13/3/14
f 15/20/13 20/21/20 35/40/36
f 35/40/36 20/21/20 33/28/28
f 22/18/23 36/15/37 39/32/32
f 20/21/20 28/41/24 39/32/32
f 23/17/19 24/1/1 5/3/3
f 24/24/1 25/4/4 6/6/2
f 2/10/9 8/7/6 9/9/8
f 3/22/12 2/10/9 10/11/10
f 7/33/15 1/12/11 10/14/10
f 9/9/8 11/8/7 13/16/14
f 12/33/17 7/12/15 14/14/16
f 14/26/16 10/11/10 13/16/14
f 16/33/33 12/12/17 17/14/18
f 27/19/21 8/7/6 23/17/19
f 28/25/24 27/19/21 22/21/23
f 23/17/19 2/10/9 24/1/1
f 3/42/12 1/23/11 24/24/1
f 5/3/3 21/20/22 23/17/19
f 20/18/20 8/7/6 28/25/24
f 37/31/31 31/16/25 38/27/27
f 35/40/36 33/28/28 34/30/30
f 39/32/32 37/31/31 33/28/28
f 30/43/34 29/29/29 38/27/27
f 36/15/37 31/16/25 39/32/32
f 18/12/38 16/33/33 30/13/34
f 26/38/35 38/34/27 19/36/35
f 18/44/38 30/37/34 26/38/35
f 30/43/34 17/39/18 29/29/29
f 15/20/13 35/40/36 13/3/14
f 34/30/30 17/39/18 13/3/14
f 28/41/24 22/18/23 39/32/32
f 33/28/28 20/21/20 39/32/32
f 46/45/24 47/45/24 41/45/24
f 45/45/24 46/45/24 41/45/24
f 42/45/24 44/45/24 40/45/24
f 43/45/24 42/45/24 40/45/24
f 42/45/24 43/45/24 1/45/11
f 42/45/24 7/45/15 12/45/17
f 46/45/24 45/45/24 12/45/17
f 46/45/24 16/45/33 18/45/38
f 7/45/15 42/45/24 1/45/11
f 44/45/24 42/45/24 12/45/17
f 16/45/33 46/45/24 12/45/17
f 47/45/24 46/45/24 18/45/38
