# Blender v2.69 (sub 4) OBJ File: 'SizeTest.blend'
# www.blender.org
g wall_05_Cave_Wall_Inner.009
v -0.500000 0.000000 0.000001
v -0.317578 0.079438 0.000001
v -0.500000 0.000000 0.500000
v -0.317577 0.079438 0.500000
v -0.353553 0.000000 -0.353553
v 0.400000 0.079438 -0.317578
v 0.400000 1.459136 0.000001
v -0.317578 0.079438 0.400000
v -0.500000 0.000000 0.400000
v 0.500000 0.000000 -0.500000
v 0.400000 0.000000 -0.500000
v -0.166670 0.453891 0.000001
v -0.166670 0.453891 0.500000
v -0.071297 1.333254 0.000001
v -0.117853 0.453891 -0.117853
v -0.224561 0.079438 -0.224561
v -0.049973 1.333254 -0.051480
v 0.000002 0.453891 -0.166670
v 0.000002 0.079438 -0.317578
v 0.001509 1.333254 -0.072805
v 0.400000 1.333254 -0.071297
v -0.071297 1.333254 0.500000
v -0.166670 0.453891 0.400000
v -0.071297 1.333254 0.400000
v 0.500000 1.459136 0.000001
v 0.500000 1.333254 -0.071297
v 0.500000 0.079438 -0.317578
v 0.500000 0.453891 -0.166670
v 0.400000 0.453891 -0.166670
v 0.166670 0.453891 0.400000
v 0.317578 0.079438 0.400000
v 0.264300 0.453891 0.264300
v 0.349887 0.079438 0.349887
v 0.400000 0.453891 0.166670
v 0.400000 0.079438 0.317578
v 0.166670 0.453891 0.500000
v 0.317578 0.079438 0.500000
v 0.500000 0.453891 0.166670
v 0.500000 0.079438 0.317578
v 0.500000 0.000000 0.500000
v 0.071297 1.333254 0.400000
v 0.195375 1.333254 0.195375
v 0.400000 1.333254 0.071297
v 0.071297 1.333254 0.500000
v 0.500000 1.333254 0.071297
v -0.000002 1.459136 0.400000
v -0.000002 1.459136 0.500000
v 0.150991 1.459136 0.150991
v -0.000002 1.459136 -0.000001
v -0.500000 0.000000 -0.499999
v -0.209051 0.000000 -0.499999
v -0.414782 0.000000 -0.414782
v -0.500000 0.000000 -0.209049
v 0.000000 0.000000 -0.499999
vt 1.000000 0.812500
vt 1.000000 1.000000
vt 0.859375 0.875000
vt 1.000000 0.656250
vt 0.859375 0.718750
vt 0.343750 0.906250
vt 0.343750 0.281250
vt 0.421875 0.281250
vt 0.312500 0.906250
vt 0.265625 0.281250
vt 0.234375 0.000000
vt 0.625000 0.906250
vt 0.375000 0.906250
vt 0.078125 0.906250
vt 0.062500 0.281250
vt 0.640625 0.281250
vt 0.703125 0.281250
vt 0.000000 0.281250
vt 0.859375 0.531250
vt 0.859375 0.343750
vt 0.656250 0.000000
vt 0.703125 0.000000
vt 0.468750 0.000000
vt 0.046875 0.000000
vt 0.000000 0.906250
vt 0.078125 1.000000
vt 0.000000 0.000000
vt 0.093750 0.906250
vt 0.093750 0.281250
vt 0.343750 0.000000
vt 0.609375 0.281250
vt 0.609375 0.906250
vt 0.609375 0.000000
vt 0.703125 0.906250
vt 0.859375 0.500000
vt 0.906250 0.453125
vt 0.984375 0.531250
vt 0.859375 0.562500
vt 0.906250 0.609375
vt 0.093750 1.000000
vt 0.343750 1.000000
vt 0.859375 0.250000
vt 0.625000 1.000000
vt 0.703125 1.000000
vt 0.609375 1.000000
vt 0.984375 0.484375
vt 1.000000 0.343750
vt 0.000000 1.000000
vt 0.093750 0.000000
vn -0.399249 0.916843 0.000000
vn -0.716797 0.697281 0.000001
vn -0.352132 0.933824 -0.063052
vn -0.716788 0.697256 0.000000
vn -0.675283 0.294015 -0.676382
vn -0.684530 0.251137 -0.684347
vn -0.950804 0.242500 -0.192633
vn -0.180517 0.297922 -0.937346
vn -0.192511 0.242195 -0.950926
vn -0.138585 0.716086 -0.684103
vn -0.951811 0.306650 0.000000
vn -0.937712 0.295206 -0.183111
vn 0.000885 0.306894 -0.951720
vn 0.000000 0.243080 -0.969970
vn -0.969970 0.243080 0.000000
vn -0.970000 0.243105 0.000000
vn -0.000000 0.243105 -0.970000
vn -0.684103 0.716086 -0.138585
vn -0.469985 0.747093 -0.469985
vn -0.000000 0.916843 -0.399249
vn -0.000001 0.916843 -0.399249
vn 0.000000 0.697256 -0.716788
vn -0.000000 0.306665 -0.951817
vn 0.174383 0.979400 -0.101566
vn -0.000000 0.697281 -0.716797
vn 0.912717 0.308634 0.267617
vn 0.929075 0.226356 0.292489
vn 0.692953 0.199011 0.692953
vn 0.525712 0.668752 0.525712
vn 0.292489 0.226356 0.929075
vn 0.267617 0.308634 0.912717
vn 0.225654 0.670949 0.706290
vn 0.970000 0.243105 0.000000
vn 0.716797 0.697281 0.000000
vn 0.000000 0.697282 0.716797
vn 0.000000 0.243105 0.970000
vn 0.000000 0.306656 0.951820
vn 0.706290 0.670949 0.225654
vn 0.222964 0.948986 0.222964
vn 0.951818 0.306665 0.000000
vn -0.101596 0.979400 0.174383
vn 0.676687 0.290017 0.676687
vn 0.327494 0.886258 0.327494
vn -0.419202 0.806665 -0.416547
vn -0.951820 0.306656 0.000000
vn -0.000000 1.000000 0.000008
vn 0.000000 1.000000 0.000000
vn -0.109012 0.988037 -0.109012
vn -0.063052 0.933823 -0.352134
vn -0.000008 1.000000 0.000000
s 1
f 9/1/1 3/2/1 4/3/2
f 1/4/3 9/1/1 8/5/4
f 17/6/5 15/7/6 12/8/7
f 20/9/8 18/10/9 15/7/6
f 15/7/6 18/10/9 19/11/10
f 24/12/11 14/13/12 12/8/7
f 21/14/13 29/15/14 18/10/9
f 24/12/11 23/16/15 13/17/16
f 28/18/17 29/15/14 21/14/13
f 1/4/3 2/19/18 16/20/19
f 10/2/20 11/1/21 6/5/22
f 8/21/4 4/22/2 13/17/16
f 2/23/18 12/8/7 15/7/6
f 29/15/14 6/24/22 19/11/10
f 2/23/18 8/21/4 23/16/15
f 26/25/23 21/14/13 7/26/24
f 27/27/25 6/24/22 29/15/14
f 41/28/26 30/29/27 32/7/28
f 33/30/29 32/7/28 30/29/27
f 32/7/28 34/31/30 43/32/31
f 33/30/29 35/33/32 34/31/30
f 30/29/27 36/18/33 37/27/34
f 35/33/32 39/22/35 38/17/36
f 34/31/30 38/17/36 45/34/37
f 31/35/38 37/36/34 40/37/39
f 31/35/38 40/37/39 33/19/29
f 33/19/29 40/37/39 35/38/32
f 39/39/35 35/38/32 40/37/39
f 41/28/26 44/25/40 36/18/33
f 44/25/40 41/28/26 46/40/41
f 42/6/42 48/41/43 46/40/41
f 46/42/41 48/42/43 49/42/44
f 20/9/8 17/6/5 49/41/44
f 17/6/5 14/13/12 49/41/44
f 46/43/41 24/12/11 22/34/45
f 49/41/44 14/13/12 24/12/11
f 21/14/13 20/9/8 49/41/44
f 43/32/31 45/34/37 25/44/46
f 7/42/24 49/42/44 48/42/43
f 42/6/42 43/32/31 7/45/24
f 50/46/47 52/46/47 51/46/47
f 52/46/47 50/46/47 53/46/47
f 5/47/48 16/20/19 19/19/10
f 54/4/49 19/19/10 6/5/22
f 52/46/47 53/46/47 1/46/3
f 52/46/47 5/46/48 54/46/49
f 8/5/4 9/1/1 4/3/2
f 2/19/18 1/4/3 8/5/4
f 14/13/12 17/6/5 12/8/7
f 17/6/5 20/9/8 15/7/6
f 16/30/19 15/7/6 19/11/10
f 23/16/15 24/12/11 12/8/7
f 20/9/8 21/14/13 18/10/9
f 22/34/45 24/12/11 13/17/16
f 26/25/23 28/18/17 21/14/13
f 5/47/48 1/4/3 16/20/19
f 27/3/25 10/2/20 6/5/22
f 23/16/15 8/21/4 13/17/16
f 16/30/19 2/23/18 15/7/6
f 18/10/9 29/15/14 19/11/10
f 12/8/7 2/23/18 23/16/15
f 25/48/46 26/25/23 7/26/24
f 28/18/17 27/27/25 29/15/14
f 42/6/42 41/28/26 32/7/28
f 31/49/38 33/30/29 30/29/27
f 42/6/42 32/7/28 43/32/31
f 32/7/28 33/30/29 34/31/30
f 31/49/38 30/29/27 37/27/34
f 34/31/30 35/33/32 38/17/36
f 43/32/31 34/31/30 45/34/37
f 30/29/27 41/28/26 36/18/33
f 47/48/50 44/25/40 46/40/41
f 41/28/26 42/6/42 46/40/41
f 47/44/50 46/43/41 22/34/45
f 46/43/41 49/41/44 24/12/11
f 7/26/24 21/14/13 49/41/44
f 7/45/24 43/32/31 25/44/46
f 48/41/43 42/6/42 7/45/24
f 54/4/49 5/47/48 19/19/10
f 11/1/21 54/4/49 6/5/22
f 5/46/48 52/46/47 1/46/3
f 51/46/47 52/46/47 54/46/49
