# Blender v2.69 (sub 4) OBJ File: 'SizeTest.blend'
# www.blender.org
g wall_01_Cave_Wall_Outer.003
v -0.500000 0.000000 0.000001
v -0.317578 0.079438 0.000001
v -0.500000 0.000000 0.500000
v -0.317577 0.079438 0.500000
v -0.353553 0.000000 -0.353553
v 0.000002 0.000000 -0.500000
v 0.250002 0.079438 -0.317578
v 0.250002 1.459136 0.500000
v 0.250002 1.459136 0.000001
v 0.250002 1.459136 0.250001
v 0.000002 1.459136 0.500000
v -0.317578 0.079438 0.250001
v -0.500000 0.000000 0.250001
v 0.500000 1.459136 0.250001
v 0.000001 1.459136 0.250001
v 0.500000 1.459136 0.500000
v 0.500000 0.000000 -0.500000
v 0.250002 0.000000 -0.500000
v -0.166670 0.453891 0.000001
v -0.166670 0.453891 0.500000
v -0.071297 1.333254 0.000001
v -0.117853 0.453891 -0.117853
v -0.224561 0.079438 -0.224561
v -0.049973 1.333254 -0.051480
v 0.000002 0.453891 -0.166670
v 0.000002 0.079438 -0.317578
v 0.001509 1.333254 -0.072805
v 0.250002 1.333254 -0.071297
v 0.000001 1.459136 0.000001
v -0.071297 1.333254 0.500000
v -0.166670 0.453891 0.250001
v -0.071297 1.333254 0.250001
v 0.500000 1.459136 0.000001
v 0.500000 1.333254 -0.071297
v 0.500000 0.079438 -0.317578
v 0.500000 0.453891 -0.166670
v 0.250002 0.453891 -0.166670
v -0.500000 0.000000 -0.500000
v -0.414782 0.000000 -0.414782
v -0.500000 0.000000 -0.209049
v -0.209049 0.000000 -0.500000
vt 1.000000 0.812500
vt 1.000000 1.000000
vt 0.859375 0.875000
vt 0.843750 0.625000
vt 0.843750 0.750000
vt 0.718750 0.750000
vt 0.859375 0.531250
vt 1.000000 0.656250
vt 0.859375 0.234375
vt 0.343750 0.906250
vt 0.343750 0.281250
vt 0.421875 0.281250
vt 0.312500 0.906250
vt 0.265625 0.281250
vt 0.234375 0.000000
vt 0.375000 0.906250
vt 0.562500 0.281250
vt 0.156250 0.906250
vt 0.140625 0.281250
vt 0.343750 1.000000
vt 0.546875 0.906250
vt 0.703125 0.281250
vt 0.000000 0.281250
vt 0.859375 0.343750
vt 1.000000 0.343750
vt 0.859375 0.718750
vt 0.843750 0.484375
vt 0.843750 0.609375
vt 0.718750 0.609375
vt 0.718750 0.296875
vt 0.843750 0.296875
vt 0.843750 0.421875
vt 0.578125 0.000000
vt 0.703125 0.000000
vt 0.468750 0.000000
vt 0.125000 0.000000
vt 0.578125 0.906250
vt 0.703125 0.906250
vt 0.703125 1.000000
vt 0.578125 1.000000
vt 0.125000 0.906250
vt 0.000000 0.906250
vt 0.125000 1.000000
vt 0.000000 0.000000
vt 0.984375 0.484375
vt 0.718750 0.625000
vt 0.343750 0.000000
vt 0.718750 0.484375
vt 0.718750 0.421875
vt 0.000000 1.000000
vn -0.399249 0.916843 0.000000
vn -0.399248 0.916843 0.000000
vn -0.716797 0.697281 0.000000
vn 0.000000 0.999969 0.000000
vn -0.503555 0.863948 0.000000
vn -0.503572 0.863954 0.000000
vn -0.684103 0.716086 -0.138585
vn -0.352132 0.933824 -0.063052
vn 0.000000 1.000000 -0.000000
vn -0.675283 0.294015 -0.676382
vn -0.684530 0.251137 -0.684347
vn -0.950804 0.242500 -0.192633
vn -0.179449 0.297952 -0.937529
vn -0.192511 0.242225 -0.950896
vn -0.138585 0.716086 -0.684103
vn -0.937681 0.295236 -0.183111
vn -0.969970 0.243080 0.000000
vn 0.001709 0.307169 -0.951628
vn 0.000000 0.243080 -0.969970
vn -0.418989 0.806604 -0.416852
vn -0.951811 0.306650 0.000000
vn -0.970000 0.243105 0.000000
vn -0.000000 0.243105 -0.970000
vn -0.469985 0.747093 -0.469985
vn -0.109012 0.988037 -0.109012
vn 0.000000 0.697256 -0.716788
vn -0.000000 0.916843 -0.399249
vn 0.000000 0.863948 -0.503555
vn -0.000000 0.863953 -0.503572
vn -0.000000 0.697281 -0.716798
vn -0.716788 0.697256 0.000000
vn -0.951818 0.306665 0.000000
vn -0.000000 0.306665 -0.951817
vn -0.063052 0.933824 -0.352132
s 1
f 13/1/1 3/2/2 4/3/3
f 10/4/4 15/5/5 11/6/6
f 2/7/7 1/8/8 13/1/1
f 14/9/9 10/9/4 8/9/9
f 24/10/10 22/11/11 19/12/12
f 27/13/13 25/14/14 22/11/11
f 22/11/11 25/14/14 26/15/15
f 21/16/16 19/12/12 31/17/17
f 28/18/18 37/19/19 25/14/14
f 27/13/13 24/10/10 29/20/20
f 24/10/10 21/16/16 29/20/20
f 32/21/21 31/17/17 20/22/22
f 36/23/23 37/19/19 28/18/18
f 1/8/8 2/7/7 23/24/24
f 5/25/25 23/24/24 26/7/15
f 26/7/15 7/26/26 18/1/27
f 15/27/5 10/28/4 9/29/28
f 33/30/29 9/31/28 10/32/4
f 18/1/27 7/26/26 35/3/30
f 12/33/31 4/34/3 20/22/22
f 2/35/7 19/12/12 22/11/11
f 37/19/19 7/36/26 26/15/15
f 32/37/21 30/38/32 11/39/6
f 2/35/7 12/33/31 31/17/17
f 21/16/16 32/37/21 15/40/5
f 28/41/18 27/13/13 29/20/20
f 34/42/33 28/41/18 9/43/28
f 36/23/23 35/44/30 7/36/26
f 38/45/9 40/45/9 39/45/9
f 39/45/9 40/45/9 1/45/8
f 39/45/9 5/45/25 6/45/34
f 41/45/9 38/45/9 39/45/9
f 12/26/31 13/1/1 4/3/3
f 8/46/9 10/4/4 11/6/6
f 12/26/31 2/7/7 13/1/1
f 16/9/9 14/9/9 8/9/9
f 21/16/16 24/10/10 19/12/12
f 24/10/10 27/13/13 22/11/11
f 23/47/24 22/11/11 26/15/15
f 32/21/21 21/16/16 31/17/17
f 27/13/13 28/18/18 25/14/14
f 30/38/32 32/21/21 20/22/22
f 34/42/33 36/23/23 28/18/18
f 5/25/25 1/8/8 23/24/24
f 6/8/34 5/25/25 26/7/15
f 6/8/34 26/7/15 18/1/27
f 29/48/20 15/27/5 9/29/28
f 14/49/9 33/30/29 10/32/4
f 17/2/27 18/1/27 35/3/30
f 31/17/17 12/33/31 20/22/22
f 23/47/24 2/35/7 22/11/11
f 25/14/14 37/19/19 26/15/15
f 15/40/5 32/37/21 11/39/6
f 19/12/12 2/35/7 31/17/17
f 29/20/20 21/16/16 15/40/5
f 9/43/28 28/41/18 29/20/20
f 33/50/29 34/42/33 9/43/28
f 37/19/19 36/23/23 7/36/26
f 5/45/25 39/45/9 1/45/8
f 41/45/9 39/45/9 6/45/34
