# This file uses centimeters as units for non-parametric coordinates.

mtllib Billboard1.mtl
g default
v 0.055247 0.185816 2.603648
v 1.711052 0.185816 2.603648
v 0.034083 0.171787 0.442847
v 1.711052 0.185816 0.442847
v 0.202209 1.594828 2.278294
v 1.661264 1.586693 2.278294
v 1.634171 1.600088 0.512371
v 0.097010 1.596218 0.568311
v 0.429898 1.840995 2.022163
v 1.361993 1.842803 1.980138
v 1.431920 1.845994 0.742197
v 0.311286 1.843738 0.724306
v 0.429898 5.043506 2.111430
v 1.587285 5.027984 2.111430
v 1.675306 5.028209 0.553160
v 0.304007 5.023373 0.604509
v 0.180188 5.047997 2.459004
v 1.853888 5.025550 2.459004
v 1.981175 5.025875 0.205586
v -0.001863 5.018882 0.279842
v -0.260134 6.881226 3.071894
v 2.323999 6.846573 3.071894
v 2.520526 6.847072 -0.407304
v -0.541214 6.836279 -0.292655
v -0.028729 6.877065 2.749799
v 2.076939 6.848828 2.749799
v 2.237079 6.849235 -0.085208
v -0.257766 6.840440 0.008213
v -0.028729 7.234851 2.749799
v 2.076939 7.206614 2.749799
v 2.237079 7.207021 -0.085208
v -0.257766 7.198226 0.008213
v -0.511961 7.243541 3.422416
v 2.592864 7.201905 3.422416
v 2.828991 7.202505 -0.757825
v -0.849678 7.189537 -0.620075
v -0.511961 9.633274 3.422416
v 2.592864 9.591639 3.422416
v 2.828991 9.592237 -0.757825
v -0.849678 9.579269 -0.620075
v 0.451700 7.680093 3.422416
v 1.801263 7.678250 3.422415
v 0.451700 9.129743 3.422416
v 1.801263 9.127899 3.422415
v 0.451700 7.680093 4.128293
v 1.801263 7.678250 4.128292
v 0.451700 9.129743 4.128293
v 1.801263 9.127899 4.128292
v 0.591957 7.830561 4.128293
v 1.661006 7.829101 4.128292
v 0.591957 8.978892 4.128293
v 1.661006 8.977431 4.128292
v 0.591957 7.830561 10.956329
v 1.661006 7.829101 10.956328
v 0.591957 8.978892 10.956329
v 1.661006 8.977431 10.956328
vt 0.000000 0.000000
vt 0.339162 0.000000
vt 0.000000 1.000000
vt 0.339162 1.000000
vt 0.000000 0.000000
vt 1.000000 0.000000
vt 1.000000 1.000000
vt 0.000000 1.000000
vt 0.000000 0.000000
vt 1.000000 0.000000
vt 1.000000 1.000000
vt 0.000000 1.000000
vt 0.000000 0.000000
vt 1.000000 0.000000
vt 1.000000 1.000000
vt 0.000000 1.000000
vt 0.000000 0.000000
vt 1.000000 0.000000
vt 1.000000 1.000000
vt 0.000000 1.000000
vt 0.000000 0.000000
vt 1.000000 0.000000
vt 1.000000 1.000000
vt 0.000000 1.000000
vt 0.000000 0.000000
vt 1.000000 0.000000
vt 1.000000 1.000000
vt 0.000000 1.000000
vt 0.000000 0.000000
vt 1.000000 0.000000
vt 1.000000 1.000000
vt 0.000000 1.000000
vt 0.000000 0.000000
vt 1.000000 0.000000
vt 1.000000 1.000000
vt 0.000000 1.000000
vt 0.000000 0.000000
vt 1.000000 0.000000
vt 1.000000 1.000000
vt 0.000000 1.000000
vt 0.000000 0.000000
vt 1.000000 0.000000
vt 1.000000 1.000000
vt 0.000000 1.000000
vt 0.000000 0.000000
vt 1.000000 0.000000
vt 1.000000 1.000000
vt 0.000000 1.000000
vt 0.000000 0.000000
vt 1.000000 0.000000
vt 1.000000 1.000000
vt 0.000000 1.000000
vt 0.000000 0.000000
vt 1.000000 0.000000
vt 1.000000 1.000000
vt 0.000000 1.000000
vt 0.000000 0.000000
vt 1.000000 0.000000
vt 1.000000 1.000000
vt 0.000000 1.000000
vt 0.000000 0.000000
vt 1.000000 0.000000
vt 1.000000 1.000000
vt 0.000000 1.000000
vt 0.000000 0.000000
vt 1.000000 0.000000
vt 1.000000 1.000000
vt 0.000000 1.000000
vt 0.000000 0.000000
vt 1.000000 0.000000
vt 1.000000 1.000000
vt 0.000000 1.000000
vt 0.000000 0.000000
vt 1.000000 0.000000
vt 1.000000 1.000000
vt 0.000000 1.000000
vt 0.000000 0.000000
vt 1.000000 0.000000
vt 1.000000 1.000000
vt 0.000000 1.000000
vt 0.000000 0.000000
vt 1.000000 0.000000
vt 1.000000 1.000000
vt 0.000000 1.000000
vt 0.000000 0.000000
vt 1.000000 0.000000
vt 1.000000 1.000000
vt 0.000000 1.000000
vt 0.000000 0.000000
vt 1.000000 0.000000
vt 1.000000 1.000000
vt 0.000000 1.000000
vt 0.000000 0.000000
vt 1.000000 0.000000
vt 1.000000 1.000000
vt 0.000000 1.000000
vt 0.000000 0.000000
vt 1.000000 0.000000
vt 1.000000 1.000000
vt 0.000000 1.000000
vt 0.000000 0.000000
vt 1.000000 0.000000
vt 1.000000 1.000000
vt 0.000000 1.000000
vt 0.000000 0.000000
vt 1.000000 0.000000
vt 1.000000 1.000000
vt 0.000000 1.000000
vt 0.000000 0.000000
vt 1.000000 0.000000
vt 1.000000 1.000000
vt 0.000000 1.000000
vt 0.000000 0.000000
vt 1.000000 0.000000
vt 1.000000 1.000000
vt 0.000000 1.000000
vt 0.000000 0.000000
vt 1.000000 0.000000
vt 1.000000 1.000000
vt 0.000000 1.000000
vt 0.000000 0.000000
vt 1.000000 0.000000
vt 1.000000 1.000000
vt 0.000000 1.000000
vt 0.000000 0.000000
vt 1.000000 0.000000
vt 1.000000 1.000000
vt 0.000000 1.000000
vt 0.000000 0.000000
vt 1.000000 0.000000
vt 1.000000 1.000000
vt 0.000000 1.000000
vt 0.000000 0.000000
vt 1.000000 0.000000
vt 1.000000 1.000000
vt 0.000000 1.000000
vt 0.000000 0.000000
vt 1.000000 0.000000
vt 1.000000 1.000000
vt 0.000000 1.000000
vt 0.000000 0.000000
vt 1.000000 0.000000
vt 1.000000 1.000000
vt 0.000000 1.000000
vt 0.000000 0.000000
vt 1.000000 0.000000
vt 1.000000 1.000000
vt 0.000000 1.000000
vt 0.000000 0.000000
vt 1.000000 0.000000
vt 1.000000 1.000000
vt 0.000000 1.000000
vt 0.000000 0.000000
vt 1.000000 0.000000
vt 1.000000 1.000000
vt 0.000000 1.000000
vt 0.000000 0.000000
vt 1.000000 0.000000
vt 1.000000 1.000000
vt 0.000000 1.000000
vt 0.000000 0.000000
vt 1.000000 0.000000
vt 1.000000 1.000000
vt 0.000000 1.000000
vt 0.000000 0.000000
vt 1.000000 0.000000
vt 1.000000 1.000000
vt 0.000000 1.000000
vt 0.000000 0.000000
vt 1.000000 0.000000
vt 1.000000 1.000000
vt 0.000000 1.000000
vt 0.000000 0.000000
vt 1.000000 0.000000
vt 1.000000 1.000000
vt 0.000000 1.000000
vt 0.000000 0.000000
vt 1.000000 0.000000
vt 1.000000 1.000000
vt 0.000000 1.000000
vt 0.000000 0.000000
vt 1.000000 0.000000
vt 1.000000 1.000000
vt 0.000000 1.000000
vt 0.000000 0.000000
vt 1.000000 0.000000
vt 1.000000 1.000000
vt 0.000000 1.000000
vt 0.000000 0.000000
vt 1.000000 0.000000
vt 1.000000 1.000000
vt 0.000000 1.000000
vt 0.000000 0.000000
vt 1.000000 0.000000
vt 1.000000 1.000000
vt 0.000000 1.000000
vt 0.000000 0.000000
vt 1.000000 0.000000
vt 1.000000 1.000000
vt 0.000000 1.000000
vt 0.000000 0.000000
vt 1.000000 0.000000
vt 1.000000 1.000000
vt 0.000000 1.000000
vn -0.004209 0.999986 -0.003226
vn -0.004209 0.999986 -0.003226
vn -0.004209 0.999986 -0.003226
vn -0.004209 0.999986 -0.003226
vn -0.000589 -0.225588 -0.974223
vn -0.000589 -0.225588 -0.974223
vn -0.000589 -0.225588 -0.974223
vn -0.000589 -0.225588 -0.974223
vn -0.998994 -0.044338 0.006742
vn -0.998994 -0.044338 0.006742
vn -0.998994 -0.044338 0.006742
vn -0.998994 -0.044338 0.006742
vn 0.017742 -0.068430 0.997498
vn 0.017742 -0.068430 0.997498
vn 0.017742 -0.068430 0.997498
vn 0.017742 -0.068430 0.997498
vn 0.996578 -0.076100 -0.032285
vn 0.996577 -0.076100 -0.032285
vn 0.996577 -0.076100 -0.032285
vn 0.996577 -0.076100 -0.032285
vn -0.013746 -0.741830 -0.670447
vn -0.013746 -0.741830 -0.670447
vn -0.013746 -0.741830 -0.670447
vn -0.013746 -0.741830 -0.670447
vn -0.706434 -0.707641 -0.013980
vn -0.706434 -0.707641 -0.013980
vn -0.706434 -0.707641 -0.013980
vn -0.706434 -0.707641 -0.013980
vn 0.012695 -0.616116 0.787554
vn 0.012695 -0.616116 0.787553
vn 0.012695 -0.616116 0.787553
vn 0.012695 -0.616116 0.787554
vn 0.738237 -0.672225 -0.055855
vn 0.738237 -0.672225 -0.055855
vn 0.738237 -0.672225 -0.055855
vn 0.738237 -0.672225 -0.055855
vn -0.019865 0.035201 -0.999183
vn -0.019865 0.035201 -0.999183
vn -0.019865 0.035201 -0.999183
vn -0.019865 0.035201 -0.999183
vn -0.995765 0.072785 -0.056158
vn -0.995765 0.072785 -0.056158
vn -0.995765 0.072785 -0.056158
vn -0.995765 0.072785 -0.056158
vn 0.013273 0.047992 0.998760
vn 0.013273 0.047992 0.998760
vn 0.013273 0.047992 0.998760
vn 0.013273 0.047992 0.998760
vn 0.996221 0.000721 -0.086849
vn 0.996221 0.000721 -0.086849
vn 0.996221 0.000721 -0.086849
vn 0.996221 0.000721 -0.086849
vn 0.013410 0.999905 -0.003286
vn 0.013410 0.999905 -0.003286
vn 0.013410 0.999905 -0.003286
vn 0.013410 0.999905 -0.003286
vn 0.008327 0.999965 0.000615
vn 0.008327 0.999965 0.000615
vn 0.008327 0.999965 0.000615
vn 0.008327 0.999965 0.000615
vn -0.003907 0.999941 -0.010151
vn -0.003907 0.999941 -0.010151
vn -0.003907 0.999941 -0.010151
vn -0.003907 0.999941 -0.010151
vn -0.000549 0.999911 -0.013313
vn -0.000549 0.999911 -0.013313
vn -0.000549 0.999911 -0.013313
vn -0.000549 0.999911 -0.013313
vn 0.004264 0.317990 -0.948085
vn 0.004264 0.317990 -0.948085
vn 0.004264 0.317990 -0.948085
vn 0.004264 0.317990 -0.948085
vn -0.962250 0.266693 -0.054316
vn -0.962250 0.266693 -0.054316
vn -0.962250 0.266693 -0.054316
vn -0.962250 0.266693 -0.054316
vn 0.034491 0.309574 0.950250
vn 0.034491 0.309574 0.950250
vn 0.034491 0.309574 0.950250
vn 0.034491 0.309574 0.950250
vn 0.962194 0.259140 -0.083845
vn 0.962194 0.259140 -0.083845
vn 0.962194 0.259140 -0.083845
vn 0.962194 0.259140 -0.083845
vn -0.013409 -0.999905 0.003284
vn -0.013409 -0.999905 0.003284
vn -0.013409 -0.999905 0.003284
vn -0.013409 -0.999905 0.003284
vn -0.008326 -0.999965 -0.000613
vn -0.008326 -0.999965 -0.000613
vn -0.008326 -0.999965 -0.000613
vn -0.008326 -0.999965 -0.000613
vn 0.003905 -0.999941 0.010150
vn 0.003905 -0.999941 0.010150
vn 0.003905 -0.999941 0.010150
vn 0.003905 -0.999941 0.010150
vn 0.000549 -0.999911 0.013312
vn 0.000549 -0.999911 0.013312
vn 0.000549 -0.999911 0.013312
vn 0.000549 -0.999911 0.013312
vn 0.000000 0.000000 -1.000000
vn 0.000000 0.000000 -1.000000
vn 0.000000 0.000000 -1.000000
vn 0.000000 0.000000 -1.000000
vn -0.998409 0.000000 -0.056396
vn -0.998408 0.000000 -0.056396
vn -0.998409 0.000000 -0.056396
vn -0.998408 0.000000 -0.056396
vn 0.037419 0.000000 0.999300
vn 0.037419 0.000000 0.999300
vn 0.037419 0.000000 0.999300
vn 0.037419 0.000000 0.999300
vn 0.996529 0.000000 -0.083252
vn 0.996529 0.000000 -0.083252
vn 0.996529 0.000000 -0.083252
vn 0.996529 0.000000 -0.083252
vn 0.013409 0.999905 -0.003285
vn 0.013409 0.999905 -0.003285
vn 0.013409 0.999905 -0.003285
vn 0.013409 0.999905 -0.003285
vn 0.008327 0.999965 0.000614
vn 0.008327 0.999965 0.000614
vn 0.008327 0.999965 0.000614
vn 0.008327 0.999965 0.000614
vn -0.003905 0.999941 -0.010151
vn -0.003905 0.999941 -0.010151
vn -0.003905 0.999941 -0.010151
vn -0.003905 0.999941 -0.010151
vn -0.000549 0.999911 -0.013312
vn -0.000549 0.999911 -0.013312
vn -0.000549 0.999911 -0.013312
vn -0.000549 0.999911 -0.013312
vn -0.000000 0.000000 -1.000000
vn -0.000000 0.000000 -1.000000
vn -0.000000 0.000000 -1.000000
vn -0.000000 0.000000 -1.000000
vn -0.998408 0.000000 -0.056396
vn -0.998409 0.000000 -0.056396
vn -0.998409 0.000000 -0.056396
vn -0.998408 0.000000 -0.056396
vn 0.037419 0.000000 0.999300
vn 0.037419 0.000000 0.999300
vn 0.037419 0.000000 0.999300
vn 0.037419 0.000000 0.999300
vn 0.996529 0.000000 -0.083252
vn 0.996529 0.000000 -0.083252
vn 0.996529 0.000000 -0.083252
vn 0.996529 0.000000 -0.083252
vn 0.000000 -0.000000 -1.000000
vn -0.000000 -0.000000 -1.000000
vn -0.000000 -0.000000 -1.000000
vn 0.000000 -0.000000 -1.000000
vn -0.000000 0.000000 -1.000000
vn -0.000000 0.000000 -1.000000
vn 0.000000 0.000000 -1.000000
vn 0.000000 0.000000 -1.000000
vn -0.001366 -0.999999 0.000000
vn -0.001366 -0.999999 0.000000
vn -0.001366 -0.999999 0.000000
vn -0.001366 -0.999999 0.000000
vn 1.000000 0.000000 0.000000
vn 1.000000 0.000000 0.000000
vn 1.000000 0.000000 0.000000
vn 1.000000 0.000000 0.000000
vn -0.001366 -0.999999 0.000000
vn -0.001366 -0.999999 0.000000
vn -0.001366 -0.999999 0.000000
vn -0.001366 -0.999999 0.000000
vn 1.000000 0.000000 0.000000
vn 1.000000 0.000000 0.000000
vn 1.000000 0.000000 0.000000
vn 1.000000 0.000000 0.000000
vn 0.000000 0.000000 1.000000
vn 0.000000 0.000000 1.000000
vn 0.000000 0.000000 1.000000
vn 0.000000 0.000000 1.000000
vn 0.000000 0.000000 -1.000000
vn 0.000000 0.000000 -1.000000
vn 0.000000 0.000000 -1.000000
vn 0.000000 0.000000 -1.000000
vn -0.000000 0.000000 -1.000000
vn -0.000000 0.000000 -1.000000
vn -0.000000 0.000000 -1.000000
vn -0.000000 0.000000 -1.000000
vn 0.000000 0.000000 1.000000
vn 0.000000 0.000000 1.000000
vn 0.000000 0.000000 1.000000
vn 0.000000 0.000000 1.000000
vn -0.001365 -0.999999 0.000000
vn -0.001365 -0.999999 0.000000
vn -0.001365 -0.999999 0.000000
vn -0.001365 -0.999999 0.000000
vn 1.000000 0.000000 0.000000
vn 1.000000 0.000000 0.000000
vn 1.000000 0.000000 0.000000
vn 1.000000 0.000000 0.000000
vn -0.001367 -0.999999 0.000000
vn -0.001367 -0.999999 0.000000
vn -0.001367 -0.999999 0.000000
vn -0.001367 -0.999999 0.000000
vn 1.000000 0.000000 0.000000
vn 1.000000 0.000000 0.000000
vn 1.000000 0.000000 0.000000
vn 1.000000 0.000000 0.000000
vn -0.004093 -0.999970 0.006545
vn -0.004093 -0.999970 0.006545
vn -0.004093 -0.999970 0.006545
vn -0.004093 -0.999970 0.006545
s off
g pPlane1
usemtl initialShadingGroup
f 1/1/1 2/2/2 4/4/3 3/3/4
f 2/5/5 1/6/6 5/7/7 6/8/8
f 4/9/9 2/10/10 6/11/11 7/12/12
f 3/13/13 4/14/14 7/15/15 8/16/16
f 1/17/17 3/18/18 8/19/19 5/20/20
f 6/21/21 5/22/22 9/23/23 10/24/24
f 7/25/25 6/26/26 10/27/27 11/28/28
f 8/29/29 7/30/30 11/31/31 12/32/32
f 5/33/33 8/34/34 12/35/35 9/36/36
f 10/37/37 9/38/38 13/39/39 14/40/40
f 11/41/41 10/42/42 14/43/43 15/44/44
f 12/45/45 11/46/46 15/47/47 16/48/48
f 9/49/49 12/50/50 16/51/51 13/52/52
f 14/53/53 13/54/54 17/55/55 18/56/56
f 15/57/57 14/58/58 18/59/59 19/60/60
f 16/61/61 15/62/62 19/63/63 20/64/64
f 13/65/65 16/66/66 20/67/67 17/68/68
f 18/69/69 17/70/70 21/71/71 22/72/72
f 19/73/73 18/74/74 22/75/75 23/76/76
f 20/77/77 19/78/78 23/79/79 24/80/80
f 17/81/81 20/82/82 24/83/83 21/84/84
f 22/85/85 21/86/86 25/87/87 26/88/88
f 23/89/89 22/90/90 26/91/91 27/92/92
f 24/93/93 23/94/94 27/95/95 28/96/96
f 21/97/97 24/98/98 28/99/99 25/100/100
f 26/101/101 25/102/102 29/103/103 30/104/104
f 27/105/105 26/106/106 30/107/107 31/108/108
f 28/109/109 27/110/110 31/111/111 32/112/112
f 25/113/113 28/114/114 32/115/115 29/116/116
f 30/117/117 29/118/118 33/119/119 34/120/120
f 31/121/121 30/122/122 34/123/123 35/124/124
f 32/125/125 31/126/126 35/127/127 36/128/128
f 29/129/129 32/130/130 36/131/131 33/132/132
f 42/149/133 41/150/134 43/151/135 44/152/136
f 35/137/137 34/138/138 38/139/139 39/140/140
f 36/141/141 35/142/142 39/143/143 40/144/144
f 33/145/145 36/146/146 40/147/147 37/148/148
s 1
f 34/133/149 33/134/150 41/150/151 42/149/152
f 33/134/150 37/135/153 43/151/154 41/150/151
f 37/135/153 38/136/155 44/152/156 43/151/154
f 38/136/155 34/133/149 42/149/152 44/152/156
s off
f 41/153/157 42/154/158 46/155/159 45/156/160
f 41/157/161 43/158/162 47/159/163 45/160/164
f 43/161/165 44/162/166 48/163/167 47/164/168
f 42/165/169 44/166/170 48/167/171 46/168/172
f 45/169/173 46/170/174 50/171/175 49/172/176
f 45/173/177 47/174/178 51/175/179 49/176/180
f 47/177/181 48/178/182 52/179/183 51/180/184
f 46/181/185 48/182/186 52/183/187 50/184/188
f 49/185/189 50/186/190 54/187/191 53/188/192
f 49/189/193 51/190/194 55/191/195 53/192/196
f 51/193/197 52/194/198 56/195/199 55/196/200
f 50/197/201 52/198/202 56/199/203 54/200/204
f 38/201/205 37/202/206 40/203/207 39/204/208
