# Blender v2.75 (sub 0) OBJ File: 'cairoGrid.blend'
# www.blender.org
mtllib cairoGrid.mtl
o CairoObject_CairoMesh
v -1.000000 0.000000 -0.316987
v 0.000000 0.000000 -0.683013
v -0.633974 0.000000 0.683013
v 1.000000 0.000000 -0.316987
v 0.633975 0.000000 0.683013
v -0.542562 0.173263 0.552210
v -0.832207 0.173263 -0.239114
v 0.000000 0.173263 -0.543723
v 0.832207 0.173263 -0.239114
v 0.542562 0.173263 0.552210
vt 0.500000 0.898033
vt 0.228719 0.095754
vt 0.771281 0.095754
vt 0.083897 0.675044
vt 0.000000 0.732051
vt 0.183013 0.000000
vt 0.500000 1.000000
vt 0.916103 0.675044
vt 1.000000 0.732051
vt 0.816987 0.000000
vn 0.000000 1.000000 -0.000000
vn -0.749500 0.602500 0.274300
vn -0.274300 0.602500 -0.749500
vn 0.274300 0.602500 -0.749500
vn 0.000000 0.602500 0.798100
vn 0.749500 0.602500 0.274300
g CairoObject_CairoMesh_CairoMaterial
usemtl CairoMaterial
s off
f 8/1/1 6/2/1 10/3/1
f 7/4/2 1/5/2 3/6/2
f 7/4/3 8/1/3 2/7/3
f 9/8/4 4/9/4 2/7/4
f 6/2/5 3/6/5 5/10/5
f 9/8/6 10/3/6 5/10/6
f 6/2/1 8/1/1 7/4/1
f 8/1/1 10/3/1 9/8/1
f 6/2/2 7/4/2 3/6/2
f 1/5/3 7/4/3 2/7/3
f 8/1/4 9/8/4 2/7/4
f 10/3/5 6/2/5 5/10/5
f 4/9/6 9/8/6 5/10/6
