# Blender v2.75 (sub 0) OBJ File: 'cairoGrid.blend'
# www.blender.org
mtllib cairoGrid.mtl
o CairoObject_CairoMesh
v -1.000000 0.000000 -0.316987
v 0.000000 0.000000 -0.683013
v -0.633974 0.000000 0.683013
v 1.000000 0.000000 -0.316987
v 0.633975 0.000000 0.683013
v -0.542562 0.173263 0.552210
v -0.832207 0.173263 -0.239114
v 0.000000 0.173263 -0.543723
v 0.832207 0.173263 -0.239114
v 0.542562 0.173263 0.552210
v 0.433198 0.093545 0.292931
v 0.005961 0.093545 0.449310
v -0.158499 0.093545 0.000000
v 0.005960 0.093545 -0.449311
v 0.433198 0.093545 -0.292931
v 0.433198 0.561296 0.292931
v 0.364438 0.630056 0.244877
v 0.046897 0.630056 0.361105
v 0.005961 0.561296 0.449310
v -0.085277 0.630056 -0.000000
v -0.158499 0.561296 0.000000
v 0.046897 0.630056 -0.361105
v 0.005960 0.561296 -0.449311
v 0.433198 0.561296 -0.292931
v 0.364438 0.630056 -0.244877
vt 0.500000 0.898033
vt 0.228719 0.095754
vt 0.771281 0.095754
vt 0.083897 0.675044
vt 0.000000 0.732051
vt 0.183013 0.000000
vt 0.500000 1.000000
vt 0.916103 0.675044
vt 1.000000 0.732051
vt 0.816987 0.000000
vt 0.500000 0.798752
vt 0.273221 0.188986
vt 0.726779 0.188986
vt 0.165583 0.619539
vt 0.834417 0.619539
vn 0.000000 1.000000 -0.000000
vn -0.749500 0.602500 0.274300
vn -0.274300 0.602500 -0.749500
vn 0.274300 0.602500 -0.749500
vn 0.000000 0.602500 0.798100
vn 0.749500 0.602500 0.274300
vn 0.000000 -1.000000 -0.000000
vn 1.000000 0.000000 0.000000
vn -0.939100 0.000000 -0.343700
vn 0.343700 0.000000 -0.939100
vn -0.939100 0.000000 0.343700
vn 0.243000 0.707100 0.664000
vn -0.664000 0.707100 0.243000
vn -0.664000 0.707100 -0.243000
vn 0.707100 0.707100 0.000000
vn 0.243000 0.707100 -0.664000
vn 0.343700 0.000000 0.939100
g CairoObject_CairoMesh_CairoMaterial
usemtl CairoMaterial
s off
f 8/1/1 6/2/1 10/3/1
f 7/4/2 1/5/2 3/6/2
f 7/4/3 8/1/3 2/7/3
f 9/8/4 4/9/4 2/7/4
f 6/2/5 3/6/5 5/10/5
f 9/8/6 10/3/6 5/10/6
f 11/2/7 13/1/7 15/3/7
f 15/3/8 24/3/8 16/2/8
f 13/1/9 21/1/9 23/8/9
f 14/8/10 23/8/10 24/3/10
f 20/11/1 17/12/1 25/13/1
f 12/4/11 19/4/11 21/1/11
f 18/14/12 19/4/12 16/2/12
f 18/14/13 20/11/13 21/1/13
f 22/15/14 23/8/14 21/1/14
f 17/12/15 16/2/15 24/3/15
f 22/15/16 25/13/16 24/3/16
f 11/2/17 16/2/17 19/4/17
f 6/2/1 8/1/1 7/4/1
f 8/1/1 10/3/1 9/8/1
f 6/2/2 7/4/2 3/6/2
f 1/5/3 7/4/3 2/7/3
f 8/1/4 9/8/4 2/7/4
f 10/3/5 6/2/5 5/10/5
f 4/9/6 9/8/6 5/10/6
f 13/1/7 11/2/7 12/4/7
f 13/1/7 14/8/7 15/3/7
f 11/2/8 15/3/8 16/2/8
f 14/8/9 13/1/9 23/8/9
f 15/3/10 14/8/10 24/3/10
f 17/12/1 20/11/1 18/14/1
f 20/11/1 25/13/1 22/15/1
f 13/1/11 12/4/11 21/1/11
f 17/12/12 18/14/12 16/2/12
f 19/4/13 18/14/13 21/1/13
f 20/11/14 22/15/14 21/1/14
f 25/13/15 17/12/15 24/3/15
f 23/8/16 22/15/16 24/3/16
f 12/4/17 11/2/17 19/4/17
