# Blender v2.75 (sub 0) OBJ File: 'cairoGrid.blend'
# www.blender.org
mtllib caravan.mtl
o Caravan
v -0.163210 0.059041 0.378533
v -0.163210 0.379628 0.378533
v -0.163210 0.059041 -0.288368
v -0.163210 0.379628 -0.103207
v 0.163210 0.059041 0.378533
v 0.163210 0.379628 0.378533
v 0.163210 0.059041 -0.288368
v 0.163210 0.379628 -0.103207
v 0.000000 0.379628 -0.296314
v 0.000000 0.059041 -0.481475
v 0.000000 0.379628 0.378533
v 0.000000 0.059041 0.378533
v -0.150158 0.087885 0.141619
v -0.150158 0.141907 0.159171
v -0.150158 0.175294 0.205125
v -0.150158 0.175294 0.261927
v -0.150158 0.141907 0.307881
v -0.150158 0.087885 0.325434
v -0.150158 0.033863 0.307881
v -0.150158 0.000476 0.261927
v -0.150158 0.000476 0.205125
v -0.150158 0.033863 0.159171
v -0.192295 0.087885 0.141619
v -0.192295 0.141907 0.159171
v -0.192295 0.175294 0.205125
v -0.192295 0.175294 0.261927
v -0.192295 0.141907 0.307881
v -0.192295 0.087885 0.325434
v -0.192295 0.033863 0.307881
v -0.192295 0.000476 0.261927
v -0.192295 0.000476 0.205125
v -0.192295 0.033863 0.159171
v -0.150158 0.087885 -0.220232
v -0.150158 0.141907 -0.202679
v -0.150158 0.175294 -0.156726
v -0.150158 0.175294 -0.099924
v -0.150158 0.141907 -0.053970
v -0.150158 0.087885 -0.036417
v -0.150158 0.033863 -0.053970
v -0.150158 0.000476 -0.099924
v -0.150158 0.000476 -0.156726
v -0.150158 0.033863 -0.202679
v -0.192295 0.087885 -0.220232
v -0.192295 0.141907 -0.202679
v -0.192295 0.175294 -0.156726
v -0.192295 0.175294 -0.099924
v -0.192295 0.141907 -0.053970
v -0.192295 0.087885 -0.036417
v -0.192295 0.033863 -0.053970
v -0.192295 0.000476 -0.099924
v -0.192295 0.000476 -0.156726
v -0.192295 0.033863 -0.202679
v 0.150158 0.087885 0.141619
v 0.150158 0.141907 0.159171
v 0.150158 0.175294 0.205125
v 0.150158 0.175294 0.261927
v 0.150158 0.141907 0.307881
v 0.150158 0.087885 0.325434
v 0.150158 0.033863 0.307881
v 0.150158 0.000476 0.261927
v 0.150158 0.000476 0.205125
v 0.150158 0.033863 0.159171
v 0.192295 0.087885 0.141619
v 0.192295 0.141907 0.159171
v 0.192295 0.175294 0.205125
v 0.192295 0.175294 0.261927
v 0.192295 0.141907 0.307881
v 0.192295 0.087885 0.325434
v 0.192295 0.033863 0.307881
v 0.192295 0.000476 0.261927
v 0.192295 0.000476 0.205125
v 0.192295 0.033863 0.159171
v 0.150158 0.087885 -0.220232
v 0.150158 0.141907 -0.202679
v 0.150158 0.175294 -0.156726
v 0.150158 0.175294 -0.099924
v 0.150158 0.141907 -0.053970
v 0.150158 0.087885 -0.036417
v 0.150158 0.033863 -0.053970
v 0.150158 0.000476 -0.099924
v 0.150158 0.000476 -0.156726
v 0.150158 0.033863 -0.202679
v 0.192295 0.087885 -0.220232
v 0.192295 0.141907 -0.202679
v 0.192295 0.175294 -0.156726
v 0.192295 0.175294 -0.099924
v 0.192295 0.141907 -0.053970
v 0.192295 0.087885 -0.036417
v 0.192295 0.033863 -0.053970
v 0.192295 0.000476 -0.099924
v 0.192295 0.000476 -0.156726
v 0.192295 0.033863 -0.202679
vt 0.075624 0.560158
vt 0.075624 0.775459
vt 0.075624 0.000000
vt 0.500000 0.784698
vt 0.924376 0.560158
vt 0.924376 0.775459
vt 0.924376 0.000000
vt 0.500000 0.000000
vt 0.500000 1.000000
vt 0.109561 0.201635
vt 0.109561 0.255069
vt 0.000000 0.255069
vt 0.000000 0.201635
vt 0.109561 0.061743
vt 0.000000 0.061743
vt 0.000000 0.082153
vt 0.000000 0.135587
vt 0.000000 0.275479
vt 0.109561 0.082153
vt 0.109561 0.135587
vt 0.109561 0.275479
vt 0.109561 0.622388
vt 0.109561 0.675822
vt 0.000000 0.675822
vt 0.000000 0.622388
vt 0.109561 0.482495
vt 0.000000 0.482495
vt 0.000000 0.502905
vt 0.000000 0.556340
vt 0.000000 0.696232
vt 0.109561 0.502905
vt 0.109561 0.556340
vt 0.109561 0.696232
vt 1.000000 0.201635
vt 1.000000 0.255069
vt 0.890438 0.255069
vt 1.000000 0.082153
vt 1.000000 0.061743
vt 0.890438 0.061743
vt 1.000000 0.135587
vt 0.890438 0.201635
vt 1.000000 0.275479
vt 0.890438 0.082153
vt 0.890438 0.135587
vt 0.890438 0.275479
vt 1.000000 0.622388
vt 1.000000 0.675822
vt 0.890438 0.675822
vt 1.000000 0.502905
vt 1.000000 0.482495
vt 0.890438 0.482495
vt 1.000000 0.556340
vt 0.890438 0.622388
vt 1.000000 0.696232
vt 0.890438 0.502905
vt 0.890438 0.556340
vt 0.890438 0.696232
vn -1.000000 -0.000000 0.000000
vn 0.715600 0.349300 -0.604800
vn 1.000000 0.000000 0.000000
vn 0.000000 0.000000 1.000000
vn 0.000000 -1.000000 0.000000
vn 0.000000 1.000000 0.000000
vn -0.715600 0.349300 -0.604800
vn 0.000000 0.809000 -0.587800
vn 0.000000 -0.809000 -0.587800
vn 0.000000 -0.309000 0.951100
vn 0.000000 -0.309000 -0.951100
vn 0.000000 -0.809000 0.587800
vn 0.000000 0.809000 0.587800
vn 0.000000 0.309000 -0.951100
vn 0.000000 0.309000 0.951100
g Caravan_Caravan_Caravan
usemtl Caravan
s off
f 4/1/1 3/2/1 1/3/1
f 9/4/2 8/5/2 7/6/2
f 8/5/3 6/7/3 5/7/3
f 2/3/4 1/3/4 12/8/4
f 12/8/5 10/9/5 7/6/5
f 11/8/6 9/4/6 4/1/6
f 8/5/6 9/4/6 11/8/6
f 3/2/5 10/9/5 12/8/5
f 11/8/4 12/8/4 5/7/4
f 9/4/7 10/9/7 3/2/7
f 15/10/8 14/11/8 24/12/8
f 22/11/9 21/10/9 31/13/9
f 18/14/10 28/15/10 29/16/10
f 15/10/6 25/13/6 26/17/6
f 22/11/11 32/12/11 23/18/11
f 19/19/12 29/16/12 30/17/12
f 16/20/13 26/17/13 27/16/13
f 13/21/14 23/18/14 24/12/14
f 20/20/5 30/17/5 31/13/5
f 17/19/15 27/16/15 28/15/15
f 24/12/1 32/12/1 28/15/1
f 35/22/8 34/23/8 44/24/8
f 42/23/9 41/22/9 51/25/9
f 38/26/10 48/27/10 49/28/10
f 35/22/6 45/25/6 46/29/6
f 42/23/11 52/24/11 43/30/11
f 39/31/12 49/28/12 50/29/12
f 36/32/13 46/29/13 47/28/13
f 33/33/14 43/30/14 44/24/14
f 40/32/5 50/29/5 51/25/5
f 37/31/15 47/28/15 48/27/15
f 44/24/1 52/24/1 48/27/1
f 65/34/8 64/35/8 54/36/8
f 62/36/9 72/35/9 71/34/9
f 69/37/10 68/38/10 58/39/10
f 66/40/6 65/34/6 55/41/6
f 63/42/11 72/35/11 62/36/11
f 70/40/12 69/37/12 59/43/12
f 67/37/13 66/40/13 56/44/13
f 64/35/14 63/42/14 53/45/14
f 71/34/5 70/40/5 60/44/5
f 68/38/15 67/37/15 57/43/15
f 64/35/3 66/40/3 68/38/3
f 85/46/8 84/47/8 74/48/8
f 82/48/9 92/47/9 91/46/9
f 89/49/10 88/50/10 78/51/10
f 86/52/6 85/46/6 75/53/6
f 83/54/11 92/47/11 82/48/11
f 90/52/12 89/49/12 79/55/12
f 87/49/13 86/52/13 76/56/13
f 84/47/14 83/54/14 73/57/14
f 91/46/5 90/52/5 80/56/5
f 88/50/15 87/49/15 77/55/15
f 84/47/3 86/52/3 88/50/3
f 2/3/1 4/1/1 1/3/1
f 10/9/2 9/4/2 7/6/2
f 7/6/3 8/5/3 5/7/3
f 11/8/4 2/3/4 12/8/4
f 5/7/5 12/8/5 7/6/5
f 2/3/6 11/8/6 4/1/6
f 6/7/6 8/5/6 11/8/6
f 1/3/5 3/2/5 12/8/5
f 6/7/4 11/8/4 5/7/4
f 4/1/7 9/4/7 3/2/7
f 25/13/8 15/10/8 24/12/8
f 32/12/9 22/11/9 31/13/9
f 19/19/10 18/14/10 29/16/10
f 16/20/6 15/10/6 26/17/6
f 13/21/11 22/11/11 23/18/11
f 20/20/12 19/19/12 30/17/12
f 17/19/13 16/20/13 27/16/13
f 14/11/14 13/21/14 24/12/14
f 21/10/5 20/20/5 31/13/5
f 18/14/15 17/19/15 28/15/15
f 26/17/1 25/13/1 24/12/1
f 24/12/1 27/16/1 26/17/1
f 32/12/1 29/16/1 28/15/1
f 32/12/1 31/13/1 30/17/1
f 24/12/1 23/18/1 32/12/1
f 28/15/1 27/16/1 24/12/1
f 32/12/1 30/17/1 29/16/1
f 45/25/8 35/22/8 44/24/8
f 52/24/9 42/23/9 51/25/9
f 39/31/10 38/26/10 49/28/10
f 36/32/6 35/22/6 46/29/6
f 33/33/11 42/23/11 43/30/11
f 40/32/12 39/31/12 50/29/12
f 37/31/13 36/32/13 47/28/13
f 34/23/14 33/33/14 44/24/14
f 41/22/5 40/32/5 51/25/5
f 38/26/15 37/31/15 48/27/15
f 46/29/1 45/25/1 44/24/1
f 44/24/1 47/28/1 46/29/1
f 52/24/1 49/28/1 48/27/1
f 52/24/1 51/25/1 50/29/1
f 44/24/1 43/30/1 52/24/1
f 48/27/1 47/28/1 44/24/1
f 52/24/1 50/29/1 49/28/1
f 55/41/8 65/34/8 54/36/8
f 61/41/9 62/36/9 71/34/9
f 59/43/10 69/37/10 58/39/10
f 56/44/6 66/40/6 55/41/6
f 53/45/11 63/42/11 62/36/11
f 60/44/12 70/40/12 59/43/12
f 57/43/13 67/37/13 56/44/13
f 54/36/14 64/35/14 53/45/14
f 61/41/5 71/34/5 60/44/5
f 58/39/15 68/38/15 57/43/15
f 72/35/3 63/42/3 64/35/3
f 70/40/3 71/34/3 72/35/3
f 68/38/3 69/37/3 70/40/3
f 66/40/3 67/37/3 68/38/3
f 64/35/3 65/34/3 66/40/3
f 70/40/3 72/35/3 64/35/3
f 64/35/3 68/38/3 70/40/3
f 75/53/8 85/46/8 74/48/8
f 81/53/9 82/48/9 91/46/9
f 79/55/10 89/49/10 78/51/10
f 76/56/6 86/52/6 75/53/6
f 73/57/11 83/54/11 82/48/11
f 80/56/12 90/52/12 79/55/12
f 77/55/13 87/49/13 76/56/13
f 74/48/14 84/47/14 73/57/14
f 81/53/5 91/46/5 80/56/5
f 78/51/15 88/50/15 77/55/15
f 92/47/3 83/54/3 84/47/3
f 90/52/3 91/46/3 92/47/3
f 88/50/3 89/49/3 90/52/3
f 86/52/3 87/49/3 88/50/3
f 84/47/3 85/46/3 86/52/3
f 90/52/3 92/47/3 84/47/3
f 84/47/3 88/50/3 90/52/3
