# Blender v2.75 (sub 0) OBJ File: 'cairoGrid.blend'
# www.blender.org
mtllib tile_water.mtl
o tile_water
v 0.634028 -0.044681 0.682926
v -1.000265 -0.043989 -0.317222
v -0.634406 -0.043958 0.681605
v 0.999923 -0.043949 -0.316756
v 0.000030 -0.044776 -0.683340
v 0.677173 -0.056608 0.729384
v -1.068291 -0.054056 -0.338798
v -0.677546 -0.053939 0.727973
v 1.067959 -0.053909 -0.338301
v 0.000048 -0.056956 -0.729821
vt 0.249998 0.349572
vn 0.001700 0.977300 0.212000
vn -0.164800 0.984500 0.060300
vn -0.091600 0.963300 -0.252500
vn 0.000600 1.000000 -0.000300
vn 0.000700 1.000000 -0.000300
vn 0.075200 0.974200 -0.212800
vn -0.001000 1.000000 0.000400
vn 0.193500 0.978500 0.071500
vn 0.000300 0.968700 0.248400
vn -0.163500 0.984700 0.059900
vn -0.076000 0.973700 -0.214800
vn 0.091700 0.963300 -0.252400
vn 0.163900 0.984500 0.062500
g Group
usemtl CairoMaterial
s off
f 3/1/1 8/1/1 6/1/1
f 2/1/2 7/1/2 8/1/2
f 2/1/3 5/1/3 10/1/3
f 1/1/4 5/1/4 3/1/4
f 5/1/5 2/1/5 3/1/5
f 4/1/6 9/1/6 10/1/6
f 5/1/7 1/1/7 4/1/7
f 4/1/8 1/1/8 6/1/8
f 1/1/9 3/1/9 6/1/9
f 3/1/10 2/1/10 8/1/10
f 7/1/11 2/1/11 10/1/11
f 5/1/12 4/1/12 10/1/12
f 9/1/13 4/1/13 6/1/13
